<svg width="89" height="37" viewBox="0 0 89 37" fill="none" xmlns="http://www.w3.org/2000/svg">
<path d="M9.83496 2.21289C10.1768 2.21289 10.5072 2.54329 10.8262 3.2041L10.7236 3.7168C12.7061 16.819 14.096 26.7995 14.8936 33.6582C14.6657 34.2962 14.3125 34.6152 13.834 34.6152C13.0365 34.6152 12.5579 32.9062 12.3984 29.4883L12.0225 26.7881L10.1426 26.8906C8.95768 26.8906 7.16895 26.7425 4.77637 26.4463C3.09017 32.2113 1.93945 35.0938 1.32422 35.0938H1.25586C0.526693 34.8887 0.162109 34.5241 0.162109 34C2.00781 29.4883 4.01302 21.7637 6.17773 10.8262C7.11198 7.45378 7.96647 4.73079 8.74121 2.65723C9.06022 2.361 9.4248 2.21289 9.83496 2.21289ZM5.32324 24.3955C6.5765 24.6917 7.89811 24.8398 9.28809 24.8398H11.1338C11.3844 24.8398 11.6009 24.7373 11.7832 24.5322L9.28809 7.9209H9.21973C8.764 8.62728 8.10319 11.111 7.2373 15.3721L5.32324 24.3955ZM17.5254 2.93066C18.2546 3.0446 18.6191 3.36361 18.6191 3.8877L18.3799 5.87012V6.38281C18.7445 14.8138 19.2572 20.4079 19.918 23.165L19.9863 23.3018H20.123C20.6927 22.7321 21.4105 22.3561 22.2764 22.1738C24.8057 22.903 26.0703 24.7487 26.0703 27.7109V28.5654C25.9564 32.0518 24.8626 34.2051 22.7891 35.0254L21.9688 35.1279H21.627L21.4902 35.0254L21.1826 35.1279V35.6748C21.1826 36.0622 20.9661 36.347 20.5332 36.5293H20.123C19.3939 36.5293 19.0293 35.7432 19.0293 34.1709C18.8926 33.2139 18.5736 32.3024 18.0723 31.4365V31.1289L18.3799 30.582L18.1748 28.4629L18.3115 27.2666C16.9899 17.2633 16.3291 10.1995 16.3291 6.0752C16.3291 3.97884 16.7279 2.93066 17.5254 2.93066ZM20.4648 27.4033C20.4648 31.0947 20.8522 32.9404 21.627 32.9404L21.7637 33.0771H22.3789C23.5182 32.1885 24.0879 30.582 24.0879 28.2578C24.0879 26.3665 23.5866 25.0677 22.584 24.3613H21.832C20.9206 25.0677 20.4648 26.0817 20.4648 27.4033ZM31.8467 22.208C33.8063 22.9144 34.8431 25.0791 34.957 28.7021V28.9072C34.8659 31.9378 34.0798 33.7949 32.5986 34.4785L31.6416 34.6152C29.2035 34.0228 27.9844 32.1885 27.9844 29.1123V29.0098C27.9844 25.6829 29.0553 23.4613 31.1973 22.3447L31.8467 22.208ZM30.001 28.7021V29.4541C30.2516 31.596 30.9124 32.667 31.9834 32.667C32.5986 31.9834 32.9062 30.6618 32.9062 28.7021V28.4971C32.7923 26.0589 32.4049 24.7259 31.7441 24.498C30.582 25.0221 30.001 26.4235 30.001 28.7021ZM43.7754 22.5498C44.5046 22.5498 44.8691 23.3473 44.8691 24.9424C44.8691 26.7653 44.9945 28.9756 45.2451 31.5732C45.9743 31.8923 46.3389 32.2796 46.3389 32.7354V32.8721C46.3389 33.4417 45.9515 33.7949 45.1768 33.9316C44.6755 33.9316 44.2425 33.4531 43.8779 32.4961C42.9209 33.7493 41.9867 34.376 41.0752 34.376C39.0472 34.3076 37.7484 33.2936 37.1787 31.334C36.9736 29.1465 36.8711 26.8223 36.8711 24.3613V23.7119C36.8711 22.9144 37.2357 22.5156 37.9648 22.5156C38.4889 22.5156 38.8079 22.9486 38.9219 23.8145V24.3613C38.4661 29.7845 39.1839 32.3708 41.0752 32.1201C42.3285 31.277 42.9779 30.1719 43.0234 28.8047V27.8477L42.6133 24.7373V24.3955C42.6133 23.165 43.0007 22.5498 43.7754 22.5498ZM50.7822 4.19531C51.5114 4.19531 51.8304 6.39421 51.7393 10.792C51.6709 15.167 51.6367 18.266 51.6367 20.0889H51.7051L53.7559 19.7812C54.4167 19.8724 54.7471 20.2028 54.7471 20.7725C54.7471 21.5472 54.0293 21.9346 52.5938 21.9346L51.7051 22.2422L52.0127 33.6924C51.9215 34.4671 51.5684 34.8545 50.9531 34.8545C50.224 34.8545 49.8594 34.319 49.8594 33.248V30.5479L49.791 22.9258L49.6543 22.584L48.1504 22.6865C47.5124 22.5498 47.1934 22.1966 47.1934 21.627C47.1934 20.9206 47.9795 20.5674 49.5518 20.5674V20.4307C49.5518 17.514 49.5973 12.4212 49.6885 5.15234C49.6885 4.58268 50.0531 4.26367 50.7822 4.19531ZM75.0156 0.948242C75.9499 0.948242 76.417 3.45475 76.417 8.46777C76.5537 9.47038 76.6221 12.0908 76.6221 16.3291L76.5195 22.5498C77.0436 28.3376 77.7272 31.7555 78.5703 32.8037C79.2311 33.2594 79.5615 33.6126 79.5615 33.8633C79.4248 34.4102 79.1628 34.7747 78.7754 34.957H78.3652C77.2259 34.957 76.2917 33.4531 75.5625 30.4453C75.4258 30.4909 75.0384 31.4251 74.4004 33.248C73.5801 34.3874 72.7484 34.957 71.9053 34.957C69.0114 34.957 67.291 31.1175 66.7441 23.4385L65.001 3.2041C65.2288 2.7028 65.5479 2.45215 65.958 2.45215C66.7555 2.45215 67.1543 3.52311 67.1543 5.66504L69.2051 27.8477C69.9342 31.2201 70.8343 32.9062 71.9053 32.9062C73.1585 32.5645 73.9902 29.0098 74.4004 22.2422C74.013 16.2493 73.8193 10.8376 73.8193 6.00684V2.00781C73.8193 1.41536 74.2181 1.06217 75.0156 0.948242ZM85.4404 21.0117C86.6253 21.0117 87.3431 21.513 87.5938 22.5156C87.5938 22.9941 87.2747 23.2904 86.6367 23.4043H86.3291C86.0329 23.1992 85.7708 23.0967 85.543 23.0967H85.2354C83.7314 23.7347 82.9795 24.6917 82.9795 25.9678V26.2754C83.0934 27.0273 83.4466 27.4033 84.0391 27.4033H84.3467L86.7051 26.959C87.8672 27.0957 88.4482 27.6654 88.4482 28.668C88.4482 30.1491 87.5482 31.7327 85.748 33.4189C84.9049 34.057 84.0505 34.376 83.1846 34.376C81.6123 34.0342 80.8262 33.3848 80.8262 32.4277C81.054 31.8581 81.4414 31.5732 81.9883 31.5732L83.0479 32.3252H83.5947C85.2581 31.6872 86.0898 30.6504 86.0898 29.2148L85.9531 29.0781C85.3835 29.2832 84.7454 29.3857 84.0391 29.3857C82.3529 29.3857 81.3161 28.292 80.9287 26.1045C80.9287 24.1221 82.0339 22.5042 84.2441 21.251L85.4404 21.0117Z" fill="#FF6D6D"/>
</svg>
