<svg width="174" height="74" viewBox="0 0 174 74" fill="none" xmlns="http://www.w3.org/2000/svg">
<path d="M3.00586 0.931641C3.88477 0.931641 4.55208 3.22656 5.00781 7.81641C7.38411 21.4557 9.8418 31.7585 12.3809 38.7246H12.6738C13.6178 24.9551 14.0898 14.099 14.0898 6.15625V5.66797C14.0898 4.6263 13.9922 4.10547 13.7969 4.10547C14.1224 2.9987 14.6921 2.44531 15.5059 2.44531C16.515 2.44531 17.0195 3.45443 17.0195 5.47266V6.5957C16.3685 33.028 15.4408 46.2441 14.2363 46.2441L13.4551 46.5859C12.5436 46.5859 11.5671 44.9421 10.5254 41.6543C8.80013 37.6829 6.91211 31.0586 4.86133 21.7812C4.30794 18.6237 3.90104 17.0449 3.64062 17.0449V17.3379L3.78711 28.2754C3.78711 36.804 3.78711 42.1589 3.78711 44.3398V46.7812C3.78711 47.5951 3.3151 48.002 2.37109 48.002C1.32943 48.002 0.808594 47.2044 0.808594 45.6094V44.0469C0.808594 42.3216 0.82487 37.1784 0.857422 28.6172L0.710938 16.1172C0.710938 6.05859 1.16667 1.0293 2.07812 1.0293L3.00586 0.931641ZM24.1973 28.5684C26.0202 28.5684 27.2572 30.2122 27.9082 33.5C27.0618 37.1784 25.3203 39.0176 22.6836 39.0176H22.4883V39.1641C23.0091 42.1263 24.3926 43.6074 26.6387 43.6074C28.3639 43.6074 29.7637 42.1263 30.8379 39.1641L31.9121 38.7246C32.6283 38.7246 33.084 39.278 33.2793 40.3848C33.2793 42.403 31.7005 44.3073 28.543 46.0977L26.1992 46.5371C23.3997 46.5371 21.3001 44.5352 19.9004 40.5312C19.5098 38.9362 19.3145 37.6178 19.3145 36.5762V35.9414C19.3145 32.6211 20.6979 30.2122 23.4648 28.7148L24.1973 28.5684ZM22.3906 34.7207V34.8184L23.4648 35.9414C23.9531 35.9414 24.4089 35.2741 24.832 33.9395V33.1582C24.6693 32.1491 24.4577 31.6445 24.1973 31.6445H23.9043C23.416 31.6445 22.9115 32.6699 22.3906 34.7207ZM39.9199 28.5684C41.7428 28.5684 42.9798 30.2122 43.6309 33.5C42.7845 37.1784 41.043 39.0176 38.4062 39.0176H38.2109V39.1641C38.7318 42.1263 40.1152 43.6074 42.3613 43.6074C44.0866 43.6074 45.4863 42.1263 46.5605 39.1641L47.6348 38.7246C48.3509 38.7246 48.8066 39.278 49.002 40.3848C49.002 42.403 47.4232 44.3073 44.2656 46.0977L41.9219 46.5371C39.1224 46.5371 37.0228 44.5352 35.623 40.5312C35.2324 38.9362 35.0371 37.6178 35.0371 36.5762V35.9414C35.0371 32.6211 36.4206 30.2122 39.1875 28.7148L39.9199 28.5684ZM38.1133 34.7207V34.8184L39.1875 35.9414C39.6758 35.9414 40.1315 35.2741 40.5547 33.9395V33.1582C40.3919 32.1491 40.1803 31.6445 39.9199 31.6445H39.627C39.1387 31.6445 38.6341 32.6699 38.1133 34.7207ZM60.0371 4.44727C60.4277 4.44727 60.8509 4.74023 61.3066 5.32617V8.98828C61.3066 19.7956 62.1855 31.498 63.9434 44.0957L64.9688 47.3184C64.7409 48.1322 64.2363 48.5391 63.4551 48.5391C62.446 48.5391 61.7298 47.3184 61.3066 44.877H60.9648C59.7604 45.9837 58.5723 46.5371 57.4004 46.5371C54.7311 46.5371 52.7454 44.8118 51.4434 41.3613C51.0202 40.222 50.8086 38.8711 50.8086 37.3086C50.8086 33.5977 52.0456 31.026 54.5195 29.5938L55.5938 29.4961H55.7402C56.7168 29.4961 57.8887 29.9518 59.2559 30.8633H59.4512V30.7168C58.735 22.3184 58.377 15.4499 58.377 10.1113V6.83984C58.377 5.24479 58.9303 4.44727 60.0371 4.44727ZM53.7383 37.1621V38.2852C53.7383 40.694 54.6172 42.4355 56.375 43.5098L57.4004 43.6074C58.9629 43.6074 59.7441 42.0775 59.7441 39.0176V37.6504C59.7441 34.8835 58.3118 33.1419 55.4473 32.4258C54.3079 33.1094 53.7383 34.6882 53.7383 37.1621ZM91.3848 0.296875C92.3288 0.296875 92.8008 0.915365 92.8008 2.15234V5.22852C92.8008 9.49284 94.1191 22.3021 96.7559 43.6562V44.4375C96.7559 45.9674 96.2513 46.7324 95.2422 46.7324C94.3307 46.6022 93.875 46.1465 93.875 45.3652V44.291C93.875 42.3704 93.0449 35.5508 91.3848 23.832C86.8926 24.0924 84.6465 24.4505 84.6465 24.9062L84.793 25.1016V25.1992C85.2161 31.9375 85.4277 38.0898 85.4277 43.6562V47.5625C85.4277 49.0599 84.8581 49.8086 83.7188 49.8086C82.9701 49.8086 82.5632 49.2389 82.498 48.0996V44.4375C82.498 37.9271 82.2865 31.6283 81.8633 25.541H81.5703C80.7565 25.541 80.138 25.1829 79.7148 24.4668V23.6855C80.2682 22.9043 80.8867 22.4974 81.5703 22.4648C81.5703 19.9909 80.7402 13.3828 79.0801 2.64062C79.0801 1.82682 79.6986 1.35482 80.9355 1.22461C81.7493 1.22461 82.3678 3.58464 82.791 8.30469C83.2142 10.388 83.7676 14.7988 84.4512 21.5371H84.6465L91.2383 20.9023C90.1966 12.5365 89.6758 6.5306 89.6758 2.88477C89.6758 1.15951 90.2454 0.296875 91.3848 0.296875ZM103.982 28.5684C105.805 28.5684 107.042 30.2122 107.693 33.5C106.847 37.1784 105.105 39.0176 102.469 39.0176H102.273V39.1641C102.794 42.1263 104.178 43.6074 106.424 43.6074C108.149 43.6074 109.549 42.1263 110.623 39.1641L111.697 38.7246C112.413 38.7246 112.869 39.278 113.064 40.3848C113.064 42.403 111.486 44.3073 108.328 46.0977L105.984 46.5371C103.185 46.5371 101.085 44.5352 99.6855 40.5312C99.2949 38.9362 99.0996 37.6178 99.0996 36.5762V35.9414C99.0996 32.6211 100.483 30.2122 103.25 28.7148L103.982 28.5684ZM102.176 34.7207V34.8184L103.25 35.9414C103.738 35.9414 104.194 35.2741 104.617 33.9395V33.1582C104.454 32.1491 104.243 31.6445 103.982 31.6445H103.689C103.201 31.6445 102.697 32.6699 102.176 34.7207ZM117.752 2.73828C118.24 2.77083 118.696 3.17773 119.119 3.95898C118.891 4.31706 118.745 4.9681 118.68 5.91211L118.631 6.54688L118.924 25.7852C118.761 34.5091 118.859 40.9056 119.217 44.9746L119.314 45.3652C119.021 45.9837 118.549 46.2767 117.898 46.2441C116.434 46.1465 115.848 44.1283 116.141 40.1895C115.945 38.041 115.848 28.1615 115.848 10.5508C115.652 9.47656 115.604 8.06055 115.701 6.30273V6.10742C115.864 3.79622 116.548 2.67318 117.752 2.73828ZM131.033 27.9336C134.321 27.9336 137.12 30.554 139.432 35.7949L140.115 39.0176C140.115 42.9564 137.544 45.2676 132.4 45.9512H132.059C130.887 45.9512 129.829 45.6419 128.885 45.0234H128.396C128.885 58.5 129.129 67.5495 129.129 72.1719C128.836 73.3112 128.315 73.8809 127.566 73.8809C126.525 73.8809 126.004 73.0508 126.004 71.3906V70.7559C126.004 65.7428 125.825 57.0026 125.467 44.5352C125.044 39.0013 124.832 34.7533 124.832 31.791V30.7656C124.832 29.1055 125.337 28.2754 126.346 28.2754H127.029C127.615 28.6335 127.908 29.0892 127.908 29.6426C128.95 28.6335 129.715 28.1289 130.203 28.1289L131.033 27.9336ZM129.178 36.1367C128.592 40.7266 129.454 43.0215 131.766 43.0215H132.547C135.184 43.0215 136.73 41.7845 137.186 39.3105V38.8711C137.186 36.6901 136.046 34.444 133.768 32.1328C132.824 31.2865 131.961 30.8633 131.18 30.8633C130.105 30.7982 129.438 32.556 129.178 36.1367ZM147.244 42.875C147.993 42.875 148.514 43.347 148.807 44.291C148.807 44.9746 148.237 45.5931 147.098 46.1465C146.251 46.1465 145.747 45.5768 145.584 44.4375C146.072 43.3958 146.626 42.875 147.244 42.875ZM159.744 42.875C160.493 42.875 161.014 43.347 161.307 44.291C161.307 44.9746 160.737 45.5931 159.598 46.1465C158.751 46.1465 158.247 45.5768 158.084 44.4375C158.572 43.3958 159.126 42.875 159.744 42.875ZM172.244 42.875C172.993 42.875 173.514 43.347 173.807 44.291C173.807 44.9746 173.237 45.5931 172.098 46.1465C171.251 46.1465 170.747 45.5768 170.584 44.4375C171.072 43.3958 171.626 42.875 172.244 42.875Z" fill="white"/>
</svg>
