<svg width="395" height="29" viewBox="0 0 395 29" fill="none" xmlns="http://www.w3.org/2000/svg">
<path d="M10 1C14.9688 1 19 4.98464 19 9.89227C19 15.5392 13 24.4879 10.7969 27.5788C10.7054 27.7093 10.5856 27.8154 10.4471 27.8886C10.3086 27.9618 10.1554 28 10 28C9.84461 28 9.69141 27.9618 9.55292 27.8886C9.41443 27.8154 9.29457 27.7093 9.20312 27.5788C7 24.4892 1 15.5437 1 9.89227C1 4.98464 5.03125 1 10 1Z" stroke="#FF6D6D" stroke-width="2" stroke-linecap="round" stroke-linejoin="round"/>
<path d="M10 13C8.34315 13 7 11.6569 7 10C7 8.34315 8.34315 7 10 7C11.6569 7 13 8.34315 13 10C13 11.6569 11.6569 13 10 13Z" stroke="#FF6D6D" stroke-width="2" stroke-linecap="round" stroke-linejoin="round"/>
<path d="M38.958 9.12C40.818 9.12 42.264 9.636 43.296 10.668C44.34 11.688 44.862 13.152 44.862 15.06C44.862 16.968 44.34 18.438 43.296 19.47C42.264 20.49 40.818 21 38.958 21H34.764V9.12H38.958ZM38.958 19.362C40.218 19.362 41.178 18.99 41.838 18.246C42.51 17.49 42.846 16.428 42.846 15.06C42.846 13.692 42.51 12.636 41.838 11.892C41.178 11.136 40.218 10.758 38.958 10.758H36.69V19.362H38.958ZM57.1612 21H55.1272L53.9932 17.886H49.0072L47.8732 21H45.8932L50.3752 9.12H52.6792L57.1612 21ZM49.5472 16.32H53.4532L51.5092 10.776L49.5472 16.32ZM64.1099 9.12C65.3819 9.12 66.3899 9.438 67.1339 10.074C67.8899 10.71 68.2679 11.568 68.2679 12.648C68.2679 13.764 67.8899 14.628 67.1339 15.24C66.3899 15.84 65.3819 16.14 64.1099 16.14L63.9299 16.248H61.1759V21H59.2679V9.12H64.1099ZM63.9659 14.646C64.7459 14.646 65.3219 14.49 65.6939 14.178C66.0779 13.854 66.2699 13.362 66.2699 12.702C66.2699 12.054 66.0779 11.568 65.6939 11.244C65.3219 10.92 64.7459 10.758 63.9659 10.758H61.1759V14.646H63.9659ZM65.0999 15.042L68.9699 21H66.7559L63.4439 15.798L65.0999 15.042ZM81.0997 9.12L75.8077 14.844L75.5917 14.862L72.5137 18.174L72.3337 16.068L78.7417 9.12H81.0997ZM73.2877 9.12V21H71.3617V9.12H73.2877ZM76.2037 13.368L81.2077 21H78.9397L74.6737 14.448L76.2037 13.368ZM93.0777 8.94C94.1457 8.94 95.0697 9.144 95.8497 9.552C96.6297 9.948 97.2897 10.536 97.8297 11.316L96.5337 12.558C96.0777 11.862 95.5617 11.364 94.9857 11.064C94.4217 10.752 93.7497 10.596 92.9697 10.596C92.3937 10.596 91.9197 10.674 91.5477 10.83C91.1757 10.986 90.8997 11.196 90.7197 11.46C90.5517 11.712 90.4677 12 90.4677 12.324C90.4677 12.696 90.5937 13.02 90.8457 13.296C91.1097 13.572 91.5957 13.788 92.3037 13.944L94.7157 14.484C95.8677 14.736 96.6837 15.12 97.1637 15.636C97.6437 16.152 97.8837 16.806 97.8837 17.598C97.8837 18.33 97.6857 18.966 97.2897 19.506C96.8937 20.046 96.3417 20.46 95.6337 20.748C94.9377 21.036 94.1157 21.18 93.1677 21.18C92.3277 21.18 91.5717 21.072 90.8997 20.856C90.2277 20.64 89.6397 20.346 89.1357 19.974C88.6317 19.602 88.2177 19.176 87.8937 18.696L89.2257 17.364C89.4777 17.784 89.7957 18.162 90.1797 18.498C90.5637 18.822 91.0077 19.074 91.5117 19.254C92.0277 19.434 92.5977 19.524 93.2217 19.524C93.7737 19.524 94.2477 19.458 94.6437 19.326C95.0517 19.194 95.3577 19.002 95.5617 18.75C95.7777 18.486 95.8857 18.174 95.8857 17.814C95.8857 17.466 95.7657 17.16 95.5257 16.896C95.2977 16.632 94.8657 16.428 94.2297 16.284L91.6197 15.69C90.8997 15.534 90.3057 15.312 89.8377 15.024C89.3697 14.736 89.0217 14.388 88.7937 13.98C88.5657 13.56 88.4517 13.092 88.4517 12.576C88.4517 11.904 88.6317 11.298 88.9917 10.758C89.3637 10.206 89.8977 9.768 90.5937 9.444C91.2897 9.108 92.1177 8.94 93.0777 8.94ZM105.149 9.12C106.001 9.12 106.733 9.27 107.345 9.57C107.969 9.87 108.455 10.296 108.803 10.848C109.151 11.4 109.325 12.066 109.325 12.846C109.325 13.614 109.151 14.28 108.803 14.844C108.455 15.396 107.969 15.822 107.345 16.122C106.733 16.422 106.001 16.572 105.149 16.572H102.503V21H100.577V9.12H105.149ZM104.843 14.916C105.695 14.916 106.319 14.742 106.715 14.394C107.123 14.034 107.327 13.518 107.327 12.846C107.327 12.162 107.123 11.646 106.715 11.298C106.319 10.938 105.695 10.758 104.843 10.758H102.503V14.916H104.843ZM121.33 9.12V16.446C121.33 18.018 120.916 19.2 120.088 19.992C119.26 20.784 118.054 21.18 116.47 21.18C114.91 21.18 113.71 20.784 112.87 19.992C112.042 19.2 111.628 18.018 111.628 16.446V9.12H113.554V16.212C113.554 17.328 113.794 18.156 114.274 18.696C114.754 19.236 115.486 19.506 116.47 19.506C117.466 19.506 118.204 19.236 118.684 18.696C119.164 18.156 119.404 17.328 119.404 16.212V9.12H121.33ZM129.465 9.12C130.737 9.12 131.745 9.438 132.489 10.074C133.245 10.71 133.623 11.568 133.623 12.648C133.623 13.764 133.245 14.628 132.489 15.24C131.745 15.84 130.737 16.14 129.465 16.14L129.285 16.248H126.531V21H124.623V9.12H129.465ZM129.321 14.646C130.101 14.646 130.677 14.49 131.049 14.178C131.433 13.854 131.625 13.362 131.625 12.702C131.625 12.054 131.433 11.568 131.049 11.244C130.677 10.92 130.101 10.758 129.321 10.758H126.531V14.646H129.321ZM130.455 15.042L134.325 21H132.111L128.799 15.798L130.455 15.042ZM145.274 9.12V10.776H141.206V21H139.28V10.776H135.212V9.12H145.274ZM146.419 18.57C146.755 18.57 147.031 18.654 147.247 18.822C147.475 18.978 147.649 19.2 147.769 19.488C147.889 19.764 147.949 20.082 147.949 20.442C147.949 20.886 147.865 21.312 147.697 21.72C147.529 22.14 147.283 22.518 146.959 22.854C146.647 23.202 146.269 23.484 145.825 23.7L144.925 22.926C145.249 22.806 145.537 22.65 145.789 22.458C146.041 22.266 146.251 22.05 146.419 21.81C146.599 21.57 146.725 21.324 146.797 21.072L146.725 21.036C146.665 21.072 146.593 21.102 146.509 21.126C146.437 21.15 146.329 21.162 146.185 21.162C146.017 21.162 145.843 21.114 145.663 21.018C145.495 20.934 145.351 20.802 145.231 20.622C145.111 20.442 145.051 20.208 145.051 19.92C145.051 19.656 145.111 19.422 145.231 19.218C145.363 19.014 145.531 18.858 145.735 18.75C145.939 18.63 146.167 18.57 146.419 18.57ZM160.56 8.94C161.628 8.94 162.552 9.144 163.332 9.552C164.112 9.948 164.772 10.536 165.312 11.316L164.016 12.558C163.56 11.862 163.044 11.364 162.468 11.064C161.904 10.752 161.232 10.596 160.452 10.596C159.876 10.596 159.402 10.674 159.03 10.83C158.658 10.986 158.382 11.196 158.202 11.46C158.034 11.712 157.95 12 157.95 12.324C157.95 12.696 158.076 13.02 158.328 13.296C158.592 13.572 159.078 13.788 159.786 13.944L162.198 14.484C163.35 14.736 164.166 15.12 164.646 15.636C165.126 16.152 165.366 16.806 165.366 17.598C165.366 18.33 165.168 18.966 164.772 19.506C164.376 20.046 163.824 20.46 163.116 20.748C162.42 21.036 161.598 21.18 160.65 21.18C159.81 21.18 159.054 21.072 158.382 20.856C157.71 20.64 157.122 20.346 156.618 19.974C156.114 19.602 155.7 19.176 155.376 18.696L156.708 17.364C156.96 17.784 157.278 18.162 157.662 18.498C158.046 18.822 158.49 19.074 158.994 19.254C159.51 19.434 160.08 19.524 160.704 19.524C161.256 19.524 161.73 19.458 162.126 19.326C162.534 19.194 162.84 19.002 163.044 18.75C163.26 18.486 163.368 18.174 163.368 17.814C163.368 17.466 163.248 17.16 163.008 16.896C162.78 16.632 162.348 16.428 161.712 16.284L159.102 15.69C158.382 15.534 157.788 15.312 157.32 15.024C156.852 14.736 156.504 14.388 156.276 13.98C156.048 13.56 155.934 13.092 155.934 12.576C155.934 11.904 156.114 11.298 156.474 10.758C156.846 10.206 157.38 9.768 158.076 9.444C158.772 9.108 159.6 8.94 160.56 8.94ZM177.8 21H175.766L174.632 17.886H169.646L168.512 21H166.532L171.014 9.12H173.318L177.8 21ZM170.186 16.32H174.092L172.148 10.776L170.186 16.32ZM189.645 9.12V21H187.359L182.769 13.512L181.617 11.406H181.599L181.671 13.332V21H179.907V9.12H182.175L186.747 16.59L187.917 18.732H187.935L187.863 16.788V9.12H189.645ZM207.6 10.776H200.94V14.232H206.16V15.888H200.94V21H199.014V9.12H207.6V10.776ZM214.86 9.12C216.132 9.12 217.14 9.438 217.884 10.074C218.64 10.71 219.018 11.568 219.018 12.648C219.018 13.764 218.64 14.628 217.884 15.24C217.14 15.84 216.132 16.14 214.86 16.14L214.68 16.248H211.926V21H210.018V9.12H214.86ZM214.716 14.646C215.496 14.646 216.072 14.49 216.444 14.178C216.828 13.854 217.02 13.362 217.02 12.702C217.02 12.054 216.828 11.568 216.444 11.244C216.072 10.92 215.496 10.758 214.716 10.758H211.926V14.646H214.716ZM215.85 15.042L219.72 21H217.506L214.194 15.798L215.85 15.042ZM231.976 21H229.942L228.808 17.886H223.822L222.688 21H220.708L225.19 9.12H227.494L231.976 21ZM224.362 16.32H228.268L226.324 10.776L224.362 16.32ZM243.82 9.12V21H241.534L236.944 13.512L235.792 11.406H235.774L235.846 13.332V21H234.082V9.12H236.35L240.922 16.59L242.092 18.732H242.11L242.038 16.788V9.12H243.82ZM257.182 17.85C256.942 18.57 256.582 19.182 256.102 19.686C255.622 20.178 255.058 20.55 254.41 20.802C253.762 21.054 253.048 21.18 252.268 21.18C251.128 21.18 250.138 20.934 249.298 20.442C248.458 19.95 247.81 19.248 247.354 18.336C246.898 17.424 246.67 16.332 246.67 15.06C246.67 13.788 246.898 12.696 247.354 11.784C247.81 10.872 248.458 10.17 249.298 9.678C250.138 9.186 251.122 8.94 252.25 8.94C253.03 8.94 253.732 9.048 254.356 9.264C254.992 9.48 255.532 9.804 255.976 10.236C256.42 10.668 256.762 11.208 257.002 11.856L255.184 12.666C254.944 11.958 254.596 11.442 254.14 11.118C253.684 10.782 253.09 10.614 252.358 10.614C251.626 10.614 250.984 10.788 250.432 11.136C249.88 11.484 249.448 11.988 249.136 12.648C248.836 13.308 248.686 14.112 248.686 15.06C248.686 15.996 248.83 16.8 249.118 17.472C249.406 18.132 249.82 18.636 250.36 18.984C250.9 19.332 251.548 19.506 252.304 19.506C253.036 19.506 253.666 19.32 254.194 18.948C254.734 18.564 255.118 17.994 255.346 17.238L257.182 17.85ZM261.567 9.12V21H259.641V9.12H261.567ZM269.14 8.94C270.208 8.94 271.132 9.144 271.912 9.552C272.692 9.948 273.352 10.536 273.892 11.316L272.596 12.558C272.14 11.862 271.624 11.364 271.048 11.064C270.484 10.752 269.812 10.596 269.032 10.596C268.456 10.596 267.982 10.674 267.61 10.83C267.238 10.986 266.962 11.196 266.782 11.46C266.614 11.712 266.53 12 266.53 12.324C266.53 12.696 266.656 13.02 266.908 13.296C267.172 13.572 267.658 13.788 268.366 13.944L270.778 14.484C271.93 14.736 272.746 15.12 273.226 15.636C273.706 16.152 273.946 16.806 273.946 17.598C273.946 18.33 273.748 18.966 273.352 19.506C272.956 20.046 272.404 20.46 271.696 20.748C271 21.036 270.178 21.18 269.23 21.18C268.39 21.18 267.634 21.072 266.962 20.856C266.29 20.64 265.702 20.346 265.198 19.974C264.694 19.602 264.28 19.176 263.956 18.696L265.288 17.364C265.54 17.784 265.858 18.162 266.242 18.498C266.626 18.822 267.07 19.074 267.574 19.254C268.09 19.434 268.66 19.524 269.284 19.524C269.836 19.524 270.31 19.458 270.706 19.326C271.114 19.194 271.42 19.002 271.624 18.75C271.84 18.486 271.948 18.174 271.948 17.814C271.948 17.466 271.828 17.16 271.588 16.896C271.36 16.632 270.928 16.428 270.292 16.284L267.682 15.69C266.962 15.534 266.368 15.312 265.9 15.024C265.432 14.736 265.084 14.388 264.856 13.98C264.628 13.56 264.514 13.092 264.514 12.576C264.514 11.904 264.694 11.298 265.054 10.758C265.426 10.206 265.96 9.768 266.656 9.444C267.352 9.108 268.18 8.94 269.14 8.94ZM286.485 17.85C286.245 18.57 285.885 19.182 285.405 19.686C284.925 20.178 284.361 20.55 283.713 20.802C283.065 21.054 282.351 21.18 281.571 21.18C280.431 21.18 279.441 20.934 278.601 20.442C277.761 19.95 277.113 19.248 276.657 18.336C276.201 17.424 275.973 16.332 275.973 15.06C275.973 13.788 276.201 12.696 276.657 11.784C277.113 10.872 277.761 10.17 278.601 9.678C279.441 9.186 280.425 8.94 281.553 8.94C282.333 8.94 283.035 9.048 283.659 9.264C284.295 9.48 284.835 9.804 285.279 10.236C285.723 10.668 286.065 11.208 286.305 11.856L284.487 12.666C284.247 11.958 283.899 11.442 283.443 11.118C282.987 10.782 282.393 10.614 281.661 10.614C280.929 10.614 280.287 10.788 279.735 11.136C279.183 11.484 278.751 11.988 278.439 12.648C278.139 13.308 277.989 14.112 277.989 15.06C277.989 15.996 278.133 16.8 278.421 17.472C278.709 18.132 279.123 18.636 279.663 18.984C280.203 19.332 280.851 19.506 281.607 19.506C282.339 19.506 282.969 19.32 283.497 18.948C284.037 18.564 284.421 17.994 284.649 17.238L286.485 17.85ZM293.876 8.94C295.028 8.94 296.024 9.186 296.864 9.678C297.704 10.17 298.352 10.872 298.808 11.784C299.264 12.696 299.492 13.788 299.492 15.06C299.492 16.332 299.264 17.424 298.808 18.336C298.352 19.248 297.704 19.95 296.864 20.442C296.024 20.934 295.028 21.18 293.876 21.18C292.736 21.18 291.746 20.934 290.906 20.442C290.066 19.95 289.418 19.248 288.962 18.336C288.506 17.424 288.278 16.332 288.278 15.06C288.278 13.788 288.506 12.696 288.962 11.784C289.418 10.872 290.066 10.17 290.906 9.678C291.746 9.186 292.736 8.94 293.876 8.94ZM293.876 10.614C293.132 10.614 292.49 10.788 291.95 11.136C291.422 11.484 291.014 11.988 290.726 12.648C290.438 13.308 290.294 14.112 290.294 15.06C290.294 15.996 290.438 16.8 290.726 17.472C291.014 18.132 291.422 18.636 291.95 18.984C292.49 19.332 293.132 19.506 293.876 19.506C294.632 19.506 295.274 19.332 295.802 18.984C296.342 18.636 296.756 18.132 297.044 17.472C297.332 16.8 297.476 15.996 297.476 15.06C297.476 14.112 297.332 13.308 297.044 12.648C296.756 11.988 296.342 11.484 295.802 11.136C295.274 10.788 294.632 10.614 293.876 10.614ZM302.477 18.57C302.813 18.57 303.089 18.654 303.305 18.822C303.533 18.978 303.707 19.2 303.827 19.488C303.947 19.764 304.007 20.082 304.007 20.442C304.007 20.886 303.923 21.312 303.755 21.72C303.587 22.14 303.341 22.518 303.017 22.854C302.705 23.202 302.327 23.484 301.883 23.7L300.983 22.926C301.307 22.806 301.595 22.65 301.847 22.458C302.099 22.266 302.309 22.05 302.477 21.81C302.657 21.57 302.783 21.324 302.855 21.072L302.783 21.036C302.723 21.072 302.651 21.102 302.567 21.126C302.495 21.15 302.387 21.162 302.243 21.162C302.075 21.162 301.901 21.114 301.721 21.018C301.553 20.934 301.409 20.802 301.289 20.622C301.169 20.442 301.109 20.208 301.109 19.92C301.109 19.656 301.169 19.422 301.289 19.218C301.421 19.014 301.589 18.858 301.793 18.75C301.997 18.63 302.225 18.57 302.477 18.57ZM322.415 17.85C322.175 18.57 321.815 19.182 321.335 19.686C320.855 20.178 320.291 20.55 319.643 20.802C318.995 21.054 318.281 21.18 317.501 21.18C316.361 21.18 315.371 20.934 314.531 20.442C313.691 19.95 313.043 19.248 312.587 18.336C312.131 17.424 311.903 16.332 311.903 15.06C311.903 13.788 312.131 12.696 312.587 11.784C313.043 10.872 313.691 10.17 314.531 9.678C315.371 9.186 316.355 8.94 317.483 8.94C318.263 8.94 318.965 9.048 319.589 9.264C320.225 9.48 320.765 9.804 321.209 10.236C321.653 10.668 321.995 11.208 322.235 11.856L320.417 12.666C320.177 11.958 319.829 11.442 319.373 11.118C318.917 10.782 318.323 10.614 317.591 10.614C316.859 10.614 316.217 10.788 315.665 11.136C315.113 11.484 314.681 11.988 314.369 12.648C314.069 13.308 313.919 14.112 313.919 15.06C313.919 15.996 314.063 16.8 314.351 17.472C314.639 18.132 315.053 18.636 315.593 18.984C316.133 19.332 316.781 19.506 317.537 19.506C318.269 19.506 318.899 19.32 319.427 18.948C319.967 18.564 320.351 17.994 320.579 17.238L322.415 17.85ZM334.737 21H332.703L331.569 17.886H326.583L325.449 21H323.469L327.951 9.12H330.255L334.737 21ZM327.123 16.32H331.029L329.085 10.776L327.123 16.32ZM345.646 8.94C346.666 8.94 347.524 9.192 348.22 9.696C348.928 10.2 349.456 10.908 349.804 11.82C350.164 12.732 350.344 13.806 350.344 15.042C350.344 16.41 350.158 17.55 349.786 18.462C349.414 19.362 348.88 20.04 348.184 20.496C347.488 20.952 346.648 21.18 345.664 21.18C344.656 21.18 343.792 20.958 343.072 20.514C342.352 20.07 341.812 19.404 341.452 18.516L343.27 17.67C343.438 18.234 343.714 18.684 344.098 19.02C344.494 19.356 345.028 19.524 345.7 19.524C346.252 19.524 346.714 19.416 347.086 19.2C347.458 18.984 347.752 18.672 347.968 18.264C348.196 17.856 348.358 17.364 348.454 16.788C348.55 16.212 348.598 15.564 348.598 14.844C348.598 14.808 348.598 14.778 348.598 14.754C348.598 14.718 348.598 14.682 348.598 14.646H348.526C348.394 15.126 348.154 15.516 347.806 15.816C347.47 16.116 347.086 16.338 346.654 16.482C346.222 16.614 345.79 16.68 345.358 16.68C344.59 16.68 343.906 16.53 343.306 16.23C342.718 15.918 342.256 15.486 341.92 14.934C341.584 14.382 341.416 13.728 341.416 12.972C341.416 12.144 341.584 11.43 341.92 10.83C342.268 10.23 342.754 9.768 343.378 9.444C344.014 9.108 344.77 8.94 345.646 8.94ZM345.664 10.632C344.908 10.632 344.326 10.836 343.918 11.244C343.522 11.652 343.324 12.222 343.324 12.954C343.324 13.602 343.534 14.112 343.954 14.484C344.386 14.844 344.956 15.024 345.664 15.024C346.12 15.024 346.522 14.934 346.87 14.754C347.218 14.562 347.488 14.304 347.68 13.98C347.884 13.656 347.986 13.278 347.986 12.846C347.986 12.39 347.884 12 347.68 11.676C347.488 11.34 347.218 11.082 346.87 10.902C346.522 10.722 346.12 10.632 345.664 10.632ZM358.016 21V18.03H352.22V16.716C352.244 16.656 352.28 16.584 352.328 16.5C352.388 16.416 352.454 16.32 352.526 16.212L357.476 9.12H359.834V16.536H361.85V18.03H359.834V21H358.016ZM354.02 16.536H358.016V12.342C358.016 12.054 358.022 11.76 358.034 11.46C358.058 11.148 358.076 10.842 358.088 10.542H358.052C357.92 10.83 357.746 11.148 357.53 11.496C357.326 11.832 357.134 12.126 356.954 12.378L354.146 16.374C354.122 16.398 354.098 16.422 354.074 16.446C354.062 16.47 354.044 16.5 354.02 16.536ZM367.791 21.18C366.735 21.18 365.865 20.952 365.181 20.496C364.509 20.04 363.975 19.38 363.579 18.516L365.379 17.58C365.559 18.156 365.829 18.63 366.189 19.002C366.561 19.362 367.107 19.542 367.827 19.542C368.331 19.542 368.757 19.452 369.105 19.272C369.465 19.08 369.741 18.816 369.933 18.48C370.125 18.132 370.221 17.718 370.221 17.238C370.221 16.734 370.131 16.314 369.951 15.978C369.771 15.642 369.513 15.39 369.177 15.222C368.841 15.042 368.421 14.952 367.917 14.952C367.569 14.952 367.245 14.988 366.945 15.06C366.645 15.132 366.375 15.246 366.135 15.402C365.895 15.546 365.685 15.738 365.505 15.978L363.921 15.672L364.641 9.12H371.553V10.776H366.171L365.739 14.124L365.703 14.322H365.739C366.015 14.022 366.369 13.788 366.801 13.62C367.245 13.452 367.767 13.368 368.367 13.368C369.135 13.368 369.795 13.53 370.347 13.854C370.899 14.166 371.331 14.604 371.643 15.168C371.955 15.732 372.111 16.386 372.111 17.13C372.111 17.778 372.003 18.354 371.787 18.858C371.571 19.362 371.265 19.788 370.869 20.136C370.473 20.484 370.011 20.748 369.483 20.928C368.967 21.096 368.403 21.18 367.791 21.18ZM374.362 21V19.596C375.502 18.78 376.456 18.06 377.224 17.436C378.004 16.812 378.628 16.236 379.096 15.708C379.564 15.18 379.9 14.682 380.104 14.214C380.32 13.734 380.428 13.248 380.428 12.756C380.428 12.12 380.23 11.604 379.834 11.208C379.438 10.812 378.886 10.614 378.178 10.614C377.434 10.614 376.84 10.866 376.396 11.37C375.964 11.862 375.718 12.54 375.658 13.404L373.984 12.63C374.068 11.874 374.29 11.22 374.65 10.668C375.01 10.116 375.496 9.69 376.108 9.39C376.732 9.09 377.452 8.94 378.268 8.94C378.94 8.94 379.528 9.036 380.032 9.228C380.548 9.42 380.98 9.69 381.328 10.038C381.676 10.374 381.94 10.77 382.12 11.226C382.312 11.682 382.408 12.168 382.408 12.684C382.408 13.44 382.222 14.172 381.85 14.88C381.478 15.576 380.89 16.29 380.086 17.022C379.282 17.754 378.226 18.54 376.918 19.38V19.416C377.062 19.392 377.26 19.38 377.512 19.38C377.764 19.368 378.016 19.362 378.268 19.362C378.52 19.35 378.724 19.344 378.88 19.344H382.624V21H374.362ZM389.246 8.958C390.05 8.958 390.746 9.09 391.334 9.354C391.934 9.606 392.396 9.966 392.72 10.434C393.044 10.902 393.206 11.466 393.206 12.126C393.206 12.738 393.056 13.278 392.756 13.746C392.468 14.202 392.042 14.55 391.478 14.79V14.808C392.162 15.06 392.702 15.438 393.098 15.942C393.506 16.434 393.71 17.046 393.71 17.778C393.71 18.486 393.524 19.092 393.152 19.596C392.792 20.1 392.276 20.49 391.604 20.766C390.944 21.042 390.158 21.18 389.246 21.18C388.334 21.18 387.542 21.042 386.87 20.766C386.21 20.49 385.694 20.1 385.322 19.596C384.95 19.092 384.764 18.486 384.764 17.778C384.764 17.058 384.962 16.446 385.358 15.942C385.754 15.438 386.306 15.06 387.014 14.808V14.79C386.474 14.562 386.048 14.22 385.736 13.764C385.424 13.296 385.268 12.75 385.268 12.126C385.268 11.466 385.43 10.902 385.754 10.434C386.078 9.966 386.54 9.606 387.14 9.354C387.74 9.09 388.442 8.958 389.246 8.958ZM389.246 10.578C388.61 10.578 388.1 10.734 387.716 11.046C387.344 11.358 387.158 11.784 387.158 12.324C387.158 12.864 387.35 13.29 387.734 13.602C388.118 13.902 388.622 14.052 389.246 14.052C389.87 14.052 390.368 13.902 390.74 13.602C391.124 13.29 391.316 12.864 391.316 12.324C391.316 11.784 391.13 11.358 390.758 11.046C390.386 10.734 389.882 10.578 389.246 10.578ZM389.246 19.56C389.774 19.56 390.224 19.482 390.596 19.326C390.968 19.17 391.256 18.942 391.46 18.642C391.664 18.342 391.766 17.994 391.766 17.598C391.766 17.178 391.658 16.824 391.442 16.536C391.238 16.236 390.95 16.008 390.578 15.852C390.206 15.696 389.762 15.618 389.246 15.618C388.742 15.618 388.298 15.696 387.914 15.852C387.53 16.008 387.23 16.236 387.014 16.536C386.81 16.824 386.708 17.178 386.708 17.598C386.708 17.994 386.81 18.342 387.014 18.642C387.218 18.942 387.512 19.17 387.896 19.326C388.28 19.482 388.73 19.56 389.246 19.56Z" fill="#2E4049"/>
</svg>
