<svg width="204" height="51" viewBox="0 0 204 51" fill="none" xmlns="http://www.w3.org/2000/svg">
<path d="M56.085 40.23C56.2483 40.23 56.33 40.3467 56.33 40.58C56.33 40.86 56.2483 41 56.085 41H44.255C44.0917 41 44.01 40.86 44.01 40.58C44.01 40.3467 44.0917 40.23 44.255 40.23H44.64C46.5767 40.23 47.545 39.215 47.545 37.185L47.58 27.98H37.325L37.29 37.185C37.29 38.375 37.57 39.18 38.13 39.6C38.69 39.9967 39.39 40.195 40.23 40.195H40.615C40.7783 40.195 40.86 40.3233 40.86 40.58C40.86 40.86 40.7783 41 40.615 41H28.785C28.6217 41 28.54 40.86 28.54 40.58C28.54 40.3233 28.6217 40.195 28.785 40.195H29.205C31.1417 40.195 32.11 39.1917 32.11 37.185V18.915C32.11 16.9083 31.1417 15.905 29.205 15.905H28.785C28.6217 15.905 28.54 15.765 28.54 15.485C28.54 15.205 28.6217 15.065 28.785 15.065H40.615C40.7783 15.065 40.86 15.205 40.86 15.485C40.86 15.765 40.7783 15.905 40.615 15.905H40.23C39.39 15.905 38.69 16.115 38.13 16.535C37.5933 16.9317 37.325 17.725 37.325 18.915V26.72H47.58V18.915C47.58 17.725 47.3 16.9317 46.74 16.535C46.18 16.115 45.48 15.905 44.64 15.905H44.255C44.0917 15.905 44.01 15.765 44.01 15.485C44.01 15.2283 44.0917 15.1 44.255 15.1H56.085C56.2483 15.1 56.33 15.2283 56.33 15.485C56.33 15.765 56.2483 15.905 56.085 15.905H55.7C54.86 15.905 54.16 16.115 53.6 16.535C53.0633 16.9317 52.795 17.725 52.795 18.915L52.76 37.185C52.76 39.215 53.74 40.23 55.7 40.23H56.085ZM79.0043 39.74C79.3776 39.74 79.5643 39.9033 79.5643 40.23C79.5643 40.4167 79.4826 40.5333 79.3193 40.58C79.1093 40.6267 76.7293 40.9067 72.1793 41.42L72.1443 38.375C71.5376 39.2617 70.7909 39.9967 69.9043 40.58C69.0176 41.14 68.0143 41.42 66.8943 41.42C65.0043 41.42 63.5926 40.895 62.6593 39.845C61.7259 38.7717 61.2359 37.5 61.1893 36.03C61.1193 34.1167 61.0843 31.3167 61.0843 27.63C61.0843 26.8833 60.9209 26.3817 60.5943 26.125C60.2909 25.8683 59.7543 25.74 58.9843 25.74C58.7743 25.7167 58.6693 25.5417 58.6693 25.215C58.6693 25.0517 58.7393 24.9583 58.8793 24.935C59.0893 24.865 61.3526 24.41 65.6693 23.57C65.5993 26.8133 65.5643 29.555 65.5643 31.795C65.5643 33.615 65.5876 34.945 65.6343 35.785C65.7276 36.975 65.9726 37.92 66.3693 38.62C66.7659 39.32 67.4543 39.67 68.4343 39.67C69.7876 39.67 71.0243 38.7483 72.1443 36.905L72.0743 27.665C72.0743 26.895 71.9109 26.3933 71.5843 26.16C71.2809 25.9033 70.7443 25.7633 69.9743 25.74C69.7643 25.7167 69.6593 25.53 69.6593 25.18C69.6593 25.04 69.7293 24.9583 69.8693 24.935C70.0793 24.865 72.3426 24.41 76.6593 23.57V38.06C76.6593 39.1567 77.2776 39.7283 78.5143 39.775L79.0043 39.74ZM112.968 40.195C113.131 40.195 113.213 40.335 113.213 40.615C113.213 40.8717 113.131 41 112.968 41H103.763C103.6 41 103.518 40.8717 103.518 40.615C103.518 40.335 103.6 40.195 103.763 40.195H104.148C104.801 40.195 105.291 40.09 105.618 39.88C105.945 39.6467 106.108 39.1683 106.108 38.445L106.143 32.74C106.143 31.3867 106.12 30.22 106.073 29.24C106.003 28.0267 105.77 27.07 105.373 26.37C104.976 25.67 104.288 25.32 103.308 25.32C101.955 25.32 100.753 26.1833 99.7029 27.91C99.7729 28.26 99.8079 28.6217 99.8079 28.995V32.32V38.445C99.8079 39.1683 99.9713 39.6467 100.298 39.88C100.625 40.09 101.115 40.195 101.768 40.195H102.118C102.281 40.195 102.363 40.335 102.363 40.615C102.363 40.8717 102.281 41 102.118 41H92.9479C92.7846 41 92.7029 40.8717 92.7029 40.615C92.7029 40.335 92.7846 40.195 92.9479 40.195H93.3329C93.9629 40.195 94.4413 40.09 94.7679 39.88C95.1179 39.6467 95.2929 39.1683 95.2929 38.445L95.3279 32.775C95.3279 31.3983 95.3046 30.22 95.2579 29.24C95.1879 28.0267 94.9429 27.07 94.5229 26.37C94.1263 25.67 93.4379 25.32 92.4579 25.32C91.0579 25.32 89.8096 26.2767 88.7129 28.19V38.445C88.7129 39.1683 88.8763 39.6467 89.2029 39.88C89.5296 40.09 90.0196 40.195 90.6729 40.195H91.0579C91.2213 40.195 91.3029 40.335 91.3029 40.615C91.3029 40.8717 91.2213 41 91.0579 41H81.8529C81.6896 41 81.6079 40.8717 81.6079 40.615C81.6079 40.335 81.6896 40.195 81.8529 40.195H82.2029C82.8563 40.195 83.3463 40.09 83.6729 39.88C83.9996 39.6467 84.1629 39.1683 84.1629 38.445V27.665C84.1396 26.895 83.9646 26.3933 83.6379 26.16C83.3346 25.9033 82.7979 25.7633 82.0279 25.74C81.9113 25.74 81.8296 25.6817 81.7829 25.565C81.7363 25.425 81.7129 25.3083 81.7129 25.215C81.7129 25.0517 81.7829 24.9583 81.9229 24.935C82.1329 24.865 84.3963 24.41 88.7129 23.57V26.65C89.3429 25.7167 90.1013 24.97 90.9879 24.41C91.8746 23.85 92.8779 23.57 93.9979 23.57C95.3746 23.57 96.5179 23.885 97.4279 24.515C98.3379 25.1217 98.9913 25.915 99.3879 26.895C100.041 25.8917 100.823 25.0867 101.733 24.48C102.643 23.8733 103.67 23.57 104.813 23.57C106.073 23.57 107.135 23.8383 107.998 24.375C108.885 24.8883 109.538 25.565 109.958 26.405C110.378 27.2217 110.6 28.085 110.623 28.995C110.646 29.5317 110.658 30.64 110.658 32.32L110.623 38.445C110.623 39.1683 110.786 39.6467 111.113 39.88C111.44 40.09 111.93 40.195 112.583 40.195H112.968ZM133.968 37.815C134.038 37.815 134.097 37.8383 134.143 37.885C134.213 37.9317 134.248 38.0017 134.248 38.095L134.213 38.27C133.933 39.1567 133.408 39.9033 132.638 40.51C131.868 41.0933 131.04 41.385 130.153 41.385C128.403 41.385 127.26 40.615 126.723 39.075C125.813 39.8683 124.787 40.475 123.643 40.895C122.5 41.2917 121.392 41.49 120.318 41.49C118.848 41.49 117.693 41.1517 116.853 40.475C116.037 39.775 115.628 38.8183 115.628 37.605C115.628 35.785 116.655 34.3383 118.708 33.265C119.268 32.985 119.875 32.7633 120.528 32.6C121.182 32.4367 122.057 32.25 123.153 32.04C124.39 31.83 125.475 31.5967 126.408 31.34V29.765C126.408 28.3417 126.373 27.35 126.303 26.79C126.233 26.2067 126.058 25.7283 125.778 25.355C125.312 24.795 124.693 24.515 123.923 24.515C123.34 24.515 122.827 24.7017 122.383 25.075C121.963 25.4483 121.613 26.23 121.333 27.42C121.123 28.2833 120.785 28.925 120.318 29.345C119.875 29.765 119.362 29.975 118.778 29.975C118.195 29.975 117.682 29.8117 117.238 29.485C116.795 29.135 116.573 28.6567 116.573 28.05C116.573 27.5833 116.748 27.0117 117.098 26.335C117.472 25.635 118.195 25.005 119.268 24.445C120.365 23.8617 121.893 23.57 123.853 23.57C126.607 23.57 128.625 24.27 129.908 25.67C130.328 26.1367 130.608 26.6617 130.748 27.245C130.912 27.805 130.993 28.505 130.993 29.345L130.958 33.195C130.935 33.965 130.923 35.155 130.923 36.765C130.923 37.7917 131.028 38.4567 131.238 38.76C131.448 39.04 131.728 39.18 132.078 39.18C132.358 39.18 132.638 39.0867 132.918 38.9C133.222 38.69 133.49 38.3867 133.723 37.99C133.793 37.8733 133.875 37.815 133.968 37.815ZM123.013 39.495C123.597 39.495 124.18 39.39 124.763 39.18C125.37 38.9467 125.942 38.6083 126.478 38.165C126.385 37.5817 126.338 36.8933 126.338 36.1L126.373 32.25C124.25 32.81 122.71 33.51 121.753 34.35C120.797 35.1667 120.318 36.17 120.318 37.36C120.318 38.0133 120.563 38.5383 121.053 38.935C121.543 39.3083 122.197 39.495 123.013 39.495ZM155.814 40.195C155.978 40.195 156.059 40.335 156.059 40.615C156.059 40.8717 155.978 41 155.814 41H146.644C146.481 41 146.399 40.8717 146.399 40.615C146.399 40.335 146.481 40.195 146.644 40.195H147.029C147.659 40.195 148.138 40.09 148.464 39.88C148.791 39.6467 148.954 39.1683 148.954 38.445C149.001 36.135 149.024 34.1167 149.024 32.39C149.024 31.1767 149.001 30.1267 148.954 29.24C148.884 28.0267 148.639 27.07 148.219 26.37C147.823 25.67 147.134 25.32 146.154 25.32C144.754 25.32 143.506 26.265 142.409 28.155V38.445C142.409 39.1683 142.573 39.6467 142.899 39.88C143.226 40.09 143.716 40.195 144.369 40.195H144.754C144.918 40.195 144.999 40.335 144.999 40.615C144.999 40.8717 144.918 41 144.754 41H135.549C135.363 41 135.269 40.8717 135.269 40.615C135.269 40.335 135.363 40.195 135.549 40.195H135.899C136.553 40.195 137.043 40.09 137.369 39.88C137.696 39.6467 137.859 39.1683 137.859 38.445V27.665C137.859 26.895 137.696 26.3933 137.369 26.16C137.043 25.9033 136.494 25.7633 135.724 25.74C135.514 25.7167 135.409 25.53 135.409 25.18C135.409 25.04 135.479 24.9583 135.619 24.935C135.829 24.865 138.093 24.41 142.409 23.57V26.65C143.039 25.7167 143.798 24.97 144.684 24.41C145.571 23.85 146.574 23.57 147.694 23.57C148.954 23.57 150.016 23.8383 150.879 24.375C151.743 24.8883 152.384 25.5533 152.804 26.37C153.248 27.1867 153.481 28.05 153.504 28.96V32.39V38.445C153.504 39.1683 153.668 39.6467 153.994 39.88C154.321 40.09 154.811 40.195 155.464 40.195H155.814ZM162.934 20.21C162.164 20.21 161.51 19.9417 160.974 19.405C160.437 18.8683 160.169 18.2267 160.169 17.48C160.169 16.71 160.437 16.0567 160.974 15.52C161.51 14.9833 162.164 14.715 162.934 14.715C163.68 14.715 164.322 14.9833 164.859 15.52C165.419 16.0567 165.699 16.71 165.699 17.48C165.699 18.2267 165.419 18.8683 164.859 19.405C164.322 19.9417 163.68 20.21 162.934 20.21ZM158.349 41C158.185 41 158.104 40.86 158.104 40.58C158.104 40.3233 158.185 40.195 158.349 40.195H158.734C159.41 40.195 159.935 40.09 160.309 39.88C160.682 39.6467 160.869 39.1683 160.869 38.445V27.665C160.869 26.9183 160.705 26.4283 160.379 26.195C160.075 25.9383 159.527 25.7867 158.734 25.74C158.524 25.74 158.419 25.565 158.419 25.215C158.419 25.0517 158.489 24.9583 158.629 24.935C158.862 24.865 161.125 24.41 165.419 23.57V38.445C165.419 39.1683 165.605 39.6467 165.979 39.88C166.375 40.09 166.912 40.195 167.589 40.195H167.974C168.137 40.195 168.219 40.3233 168.219 40.58C168.219 40.86 168.137 41 167.974 41H158.349ZM177.831 41.455C176.221 41.455 174.996 41 174.156 40.09C173.316 39.1567 172.873 37.8033 172.826 36.03V25.145H169.711V23.955C171.484 23.605 172.978 22.8817 174.191 21.785C175.428 20.6883 176.256 18.9967 176.676 16.71H177.376V23.955H181.751V25.145H177.376L177.306 33.055C177.306 34.6183 177.318 35.5517 177.341 35.855C177.411 37.185 177.656 38.1067 178.076 38.62C178.519 39.11 179.103 39.355 179.826 39.355C180.293 39.355 180.701 39.2617 181.051 39.075C181.401 38.865 181.821 38.515 182.311 38.025C182.428 37.885 182.533 37.815 182.626 37.815C182.719 37.815 182.813 37.8617 182.906 37.955C183.023 38.0483 183.081 38.1417 183.081 38.235C183.081 38.2817 183.058 38.3517 183.011 38.445C182.288 39.5417 181.506 40.3233 180.666 40.79C179.826 41.2333 178.881 41.455 177.831 41.455ZM203.05 23.955C203.214 23.955 203.295 24.0833 203.295 24.34C203.295 24.48 203.26 24.5733 203.19 24.62C203.12 24.6667 203.027 24.7017 202.91 24.725C202.794 24.7483 202.712 24.7717 202.665 24.795C202.082 24.935 201.569 25.2267 201.125 25.67C200.705 26.09 200.239 26.8367 199.725 27.91C198.885 29.6833 197.789 32.0283 196.435 34.945C195.082 37.8383 193.845 40.51 192.725 42.96C191.722 45.13 190.73 46.6583 189.75 47.545C188.77 48.455 187.755 48.91 186.705 48.91C185.515 48.91 184.629 48.6533 184.045 48.14C183.462 47.6267 183.17 47.055 183.17 46.425C183.17 45.8183 183.369 45.3283 183.765 44.955C184.162 44.5817 184.664 44.395 185.27 44.395C185.667 44.395 185.994 44.4417 186.25 44.535C186.53 44.6283 186.845 44.7683 187.195 44.955C187.499 45.1417 187.779 45.27 188.035 45.34C188.292 45.4333 188.595 45.48 188.945 45.48C189.389 45.48 189.774 45.2817 190.1 44.885C190.45 44.5117 190.859 43.87 191.325 42.96L192.445 40.65C191.815 39.2733 191.104 37.675 190.31 35.855C187.604 29.8583 186.169 26.6967 186.005 26.37C185.702 25.7633 185.399 25.3433 185.095 25.11C184.792 24.8767 184.349 24.76 183.765 24.76C183.602 24.76 183.52 24.62 183.52 24.34C183.52 24.0833 183.602 23.955 183.765 23.955H192.305C192.469 23.955 192.55 24.0833 192.55 24.34C192.55 24.5967 192.457 24.7367 192.27 24.76C191.78 24.8067 191.395 24.9233 191.115 25.11C190.859 25.2967 190.73 25.5183 190.73 25.775C190.73 25.9383 190.789 26.1717 190.905 26.475C191.045 26.8717 191.559 28.1317 192.445 30.255C193.355 32.3783 194.137 34.1867 194.79 35.68C194.93 35.3767 195.082 35.05 195.245 34.7C195.409 34.3267 195.595 33.93 195.805 33.51C196.085 32.9033 196.564 31.8417 197.24 30.325C197.94 28.8083 198.349 27.8517 198.465 27.455C198.582 27.1517 198.64 26.8833 198.64 26.65C198.64 26.02 198.349 25.5417 197.765 25.215C197.182 24.8883 196.564 24.725 195.91 24.725C195.747 24.725 195.665 24.5967 195.665 24.34C195.665 24.0833 195.747 23.955 195.91 23.955H203.05Z" fill="#2E4049"/>
<path d="M20.7563 5.33409C20.7265 5.10565 20.4297 5.14311 20.4059 5.37226C18.4995 23.6999 8.10593 23.0591 1.98436 21.3021C1.75139 21.2352 1.57609 21.6378 1.77806 21.7717C13.5937 29.61 12.428 38.2126 7.38994 46.8478C7.27408 47.0463 7.51897 47.2499 7.68441 47.0903C19.4618 35.7233 21.8669 13.834 20.7563 5.33409Z" fill="#FF6D6D"/>
<circle cx="9.5" cy="12.5" r="4.5" fill="#77D7D3"/>
</svg>
