<svg width="105" height="34" viewBox="0 0 105 34" fill="none" xmlns="http://www.w3.org/2000/svg">
<path d="M5.36621 3.81055C8.4196 3.81055 10.8805 8.08301 12.749 16.6279C12.9997 18.4053 13.1706 20.2282 13.2617 22.0967C13.2617 27.6338 11.792 31.3708 8.85254 33.3076C7.69043 33.7406 6.79036 33.957 6.15234 33.957C3.73698 33.957 2.13053 32.0202 1.33301 28.1465C0.945638 26.6654 0.751953 24.945 0.751953 22.9854V22.4385C0.751953 17.1292 1.66341 11.4668 3.48633 5.45117V5.10938L3.34961 5.00684C3.60026 4.20931 4.27246 3.81055 5.36621 3.81055ZM5.50293 5.82715C3.7028 11.068 2.80273 16.6051 2.80273 22.4385V22.7461C2.80273 27.7819 3.63444 30.7555 5.29785 31.667L6.15234 31.9062H6.49414C8.49935 31.9062 9.9235 30.1061 10.7666 26.5059C10.9945 25.5944 11.1084 24.5348 11.1084 23.3271V21.3447C11.1084 15.8304 9.67285 10.9199 6.80176 6.61328C6.25488 6.08919 5.82194 5.82715 5.50293 5.82715ZM22.4561 21.5498C23.1852 21.5498 23.5498 22.3473 23.5498 23.9424C23.5498 25.7653 23.6751 27.9756 23.9258 30.5732C24.6549 30.8923 25.0195 31.2796 25.0195 31.7354V31.8721C25.0195 32.4417 24.6322 32.7949 23.8574 32.9316C23.3561 32.9316 22.9232 32.4531 22.5586 31.4961C21.6016 32.7493 20.6673 33.376 19.7559 33.376C17.7279 33.3076 16.429 32.2936 15.8594 30.334C15.6543 28.1465 15.5518 25.8223 15.5518 23.3613V22.7119C15.5518 21.9144 15.9163 21.5156 16.6455 21.5156C17.1696 21.5156 17.4886 21.9486 17.6025 22.8145V23.3613C17.1468 28.7845 17.8646 31.3708 19.7559 31.1201C21.0091 30.277 21.6585 29.1719 21.7041 27.8047V26.8477L21.2939 23.7373V23.3955C21.2939 22.165 21.6813 21.5498 22.4561 21.5498ZM26.6943 19.2598C27.3096 19.2598 27.7767 20.0003 28.0957 21.4814H28.1982C29.0641 20.4561 29.9984 19.9434 31.001 19.9434C32.6416 20.2396 33.4619 20.7523 33.4619 21.4814C33.2568 22.1195 32.9036 22.4385 32.4023 22.4385L31.1035 22.0283H30.7617C29.4173 22.279 28.7451 25.0475 28.7451 30.334V31.9404C28.6084 32.6468 28.2894 33 27.7881 33C27.0589 33 26.6943 32.5671 26.6943 31.7012V27.7363C26.6943 24.8197 26.3298 22.2676 25.6006 20.0801C25.7829 19.5332 26.1475 19.2598 26.6943 19.2598ZM45.3564 0.255859C45.9261 0.255859 46.2565 0.688802 46.3477 1.55469H46.2451L46.3477 1.89648C47.1224 1.89648 49.2757 1.65723 52.8076 1.17871C53.3773 1.38379 53.6621 1.73698 53.6621 2.23828C53.6621 2.96745 52.124 3.43457 49.0479 3.63965L46.04 4.0498V5.55371C46.04 6.62467 46.473 10.9655 47.3389 18.5762H51.7139C52.3063 18.5762 52.6709 18.9066 52.8076 19.5674C52.8076 20.2738 52.2721 20.627 51.2012 20.627H47.3389V20.7637L47.2363 27.8389C47.2363 29.5251 47.4072 30.7555 47.749 31.5303L54.5166 31.0859C55.2458 31.1771 55.6104 31.4961 55.6104 32.043C55.6104 32.7721 54.8128 33.1367 53.2178 33.1367C49.1162 33.3646 47.0654 33.5811 47.0654 33.7861C46.2451 33.7861 45.6755 32.5329 45.3564 30.0264L45.1855 27.4287L45.2539 19.6699L43.9893 5.55371V4.49414C43.9893 1.66862 44.4108 0.255859 45.2539 0.255859H45.3564ZM58.0029 19.875C58.641 19.875 59.1081 20.9232 59.4043 23.0195C60.5208 25.8906 61.3184 27.611 61.7969 28.1807H61.8994C62.5374 22.6436 63.3236 19.875 64.2578 19.875H64.3945C65.0098 20.1257 65.3174 20.4902 65.3174 20.9688C64.7477 22.0853 64.1097 25.9248 63.4033 32.4873C62.9248 32.9202 62.5944 33.1367 62.4121 33.1367C61.8652 33.1367 61.0905 31.8037 60.0879 29.1377C58.2422 25.8109 57.194 23.0537 56.9434 20.8662C56.9434 20.4788 57.2965 20.1484 58.0029 19.875ZM69.9316 20.7979C71.2077 20.7979 72.0736 21.9486 72.5293 24.25C71.9368 26.8249 70.7178 28.1123 68.8721 28.1123H68.7354V28.2148C69.0999 30.2884 70.0684 31.3252 71.6406 31.3252C72.8483 31.3252 73.8281 30.2884 74.5801 28.2148L75.332 27.9072C75.8333 27.9072 76.1523 28.2946 76.2891 29.0693C76.2891 30.4821 75.1839 31.8151 72.9736 33.0684L71.333 33.376C69.3734 33.376 67.9036 31.9746 66.9238 29.1719C66.6504 28.0553 66.5137 27.1325 66.5137 26.4033V25.959C66.5137 23.6348 67.4821 21.9486 69.4189 20.9004L69.9316 20.7979ZM68.667 25.1045V25.1729L69.4189 25.959C69.7607 25.959 70.0798 25.4919 70.376 24.5576V24.0107C70.262 23.3044 70.1139 22.9512 69.9316 22.9512H69.7266C69.3848 22.9512 69.0316 23.6689 68.667 25.1045ZM83.6035 20.9004C85.9049 21.0827 86.8392 23.8512 86.4062 29.2061L86.1328 32.248C85.9961 33.0684 85.5973 33.4557 84.9365 33.4102C84.3213 33.3646 84.0479 32.9544 84.1162 32.1797L84.3555 28.8643C84.6745 24.9678 84.3327 22.9854 83.3301 22.917C82.2591 22.8258 81.4844 24.8538 81.0059 29.001L81.1426 32.6924C81.097 33.1709 80.7096 33.4215 79.9805 33.4443C79.1374 33.376 78.8184 32.1683 79.0234 29.8213L78.2031 21.9941C78.2487 21.4701 78.6702 21.1852 79.4678 21.1396C79.9463 21.1624 80.2311 21.6751 80.3223 22.6777L80.459 22.7119C81.4844 21.4359 82.5326 20.832 83.6035 20.9004ZM91.8408 3.19531C92.57 3.19531 92.889 5.39421 92.7979 9.79199C92.7295 14.167 92.6953 17.266 92.6953 19.0889H92.7637L94.8145 18.7812C95.4753 18.8724 95.8057 19.2028 95.8057 19.7725C95.8057 20.5472 95.0879 20.9346 93.6523 20.9346L92.7637 21.2422L93.0713 32.6924C92.9801 33.4671 92.627 33.8545 92.0117 33.8545C91.2826 33.8545 90.918 33.319 90.918 32.248V29.5479L90.8496 21.9258L90.7129 21.584L89.209 21.6865C88.571 21.5498 88.252 21.1966 88.252 20.627C88.252 19.9206 89.0381 19.5674 90.6104 19.5674V19.4307C90.6104 16.514 90.6559 11.4212 90.7471 4.15234C90.7471 3.58268 91.1117 3.26367 91.8408 3.19531ZM101.821 20.0117C103.006 20.0117 103.724 20.513 103.975 21.5156C103.975 21.9941 103.656 22.2904 103.018 22.4043H102.71C102.414 22.1992 102.152 22.0967 101.924 22.0967H101.616C100.112 22.7347 99.3604 23.6917 99.3604 24.9678V25.2754C99.4743 26.0273 99.8275 26.4033 100.42 26.4033H100.728L103.086 25.959C104.248 26.0957 104.829 26.6654 104.829 27.668C104.829 29.1491 103.929 30.7327 102.129 32.4189C101.286 33.057 100.431 33.376 99.5654 33.376C97.9932 33.0342 97.207 32.3848 97.207 31.4277C97.4349 30.8581 97.8223 30.5732 98.3691 30.5732L99.4287 31.3252H99.9756C101.639 30.6872 102.471 29.6504 102.471 28.2148L102.334 28.0781C101.764 28.2832 101.126 28.3857 100.42 28.3857C98.7337 28.3857 97.6969 27.292 97.3096 25.1045C97.3096 23.1221 98.4147 21.5042 100.625 20.251L101.821 20.0117Z" fill="#FF6D6D"/>
</svg>
