<svg width="108" height="31" viewBox="0 0 108 31" fill="none" xmlns="http://www.w3.org/2000/svg">
<path d="M5.36621 0.810547C8.4196 0.810547 10.8805 5.08301 12.749 13.6279C12.9997 15.4053 13.1706 17.2282 13.2617 19.0967C13.2617 24.6338 11.792 28.3708 8.85254 30.3076C7.69043 30.7406 6.79036 30.957 6.15234 30.957C3.73698 30.957 2.13053 29.0202 1.33301 25.1465C0.945638 23.6654 0.751953 21.945 0.751953 19.9854V19.4385C0.751953 14.1292 1.66341 8.4668 3.48633 2.45117V2.10938L3.34961 2.00684C3.60026 1.20931 4.27246 0.810547 5.36621 0.810547ZM5.50293 2.82715C3.7028 8.06803 2.80273 13.6051 2.80273 19.4385V19.7461C2.80273 24.7819 3.63444 27.7555 5.29785 28.667L6.15234 28.9062H6.49414C8.49935 28.9062 9.9235 27.1061 10.7666 23.5059C10.9945 22.5944 11.1084 21.5348 11.1084 20.3271V18.3447C11.1084 12.8304 9.67285 7.91992 6.80176 3.61328C6.25488 3.08919 5.82194 2.82715 5.50293 2.82715ZM22.4561 18.5498C23.1852 18.5498 23.5498 19.3473 23.5498 20.9424C23.5498 22.7653 23.6751 24.9756 23.9258 27.5732C24.6549 27.8923 25.0195 28.2796 25.0195 28.7354V28.8721C25.0195 29.4417 24.6322 29.7949 23.8574 29.9316C23.3561 29.9316 22.9232 29.4531 22.5586 28.4961C21.6016 29.7493 20.6673 30.376 19.7559 30.376C17.7279 30.3076 16.429 29.2936 15.8594 27.334C15.6543 25.1465 15.5518 22.8223 15.5518 20.3613V19.7119C15.5518 18.9144 15.9163 18.5156 16.6455 18.5156C17.1696 18.5156 17.4886 18.9486 17.6025 19.8145V20.3613C17.1468 25.7845 17.8646 28.3708 19.7559 28.1201C21.0091 27.277 21.6585 26.1719 21.7041 24.8047V23.8477L21.2939 20.7373V20.3955C21.2939 19.165 21.6813 18.5498 22.4561 18.5498ZM26.6943 16.2598C27.3096 16.2598 27.7767 17.0003 28.0957 18.4814H28.1982C29.0641 17.4561 29.9984 16.9434 31.001 16.9434C32.6416 17.2396 33.4619 17.7523 33.4619 18.4814C33.2568 19.1195 32.9036 19.4385 32.4023 19.4385L31.1035 19.0283H30.7617C29.4173 19.279 28.7451 22.0475 28.7451 27.334V28.9404C28.6084 29.6468 28.2894 30 27.7881 30C27.0589 30 26.6943 29.5671 26.6943 28.7012V24.7363C26.6943 21.8197 26.3298 19.2676 25.6006 17.0801C25.7829 16.5332 26.1475 16.2598 26.6943 16.2598ZM51.5088 0.332031C51.9645 0.332031 52.2949 0.719401 52.5 1.49414C52.5 5.52734 52.1696 7.54395 51.5088 7.54395L51.2012 7.64648C50.4948 7.64648 50.1416 6.92871 50.1416 5.49316C49.8454 3.82975 49.4124 2.99805 48.8428 2.99805C46.8604 4.61589 45.8691 7.85156 45.8691 12.7051C46.3477 20.2702 46.9743 24.7591 47.749 26.1719C48.6833 27.8125 49.7201 28.6328 50.8594 28.6328H51.3037C52.9443 28.6328 54.2773 27.015 55.3027 23.7793C55.599 23.5059 55.8724 23.3691 56.123 23.3691C56.6927 23.3691 57.0231 23.7223 57.1143 24.4287C56.932 25.9782 56.0433 27.6302 54.4482 29.3848C53.1038 30.2507 51.9759 30.6836 51.0645 30.6836C48.0111 30.6836 46.0059 28.3138 45.0488 23.5742C44.2741 18.903 43.8867 15.3597 43.8867 12.9443V12.5C43.8867 8.19336 44.8779 4.67285 46.8604 1.93848C47.5212 1.27767 48.2845 0.947266 49.1504 0.947266L50.3467 1.25488C50.3467 0.776367 50.734 0.46875 51.5088 0.332031ZM64.1895 18.5498L66.2402 18.8916V18.7891C66.7415 18.7891 67.1289 19.1878 67.4023 19.9854L67.2998 22.1387V23.6426C67.2998 25.8529 67.6188 27.5049 68.2568 28.5986C68.0745 29.1683 67.7214 29.4531 67.1973 29.4531C66.4453 29.4531 65.8984 28.5872 65.5566 26.8555L65.4883 26.3086H65.1807C64.3604 28.2454 63.1982 29.5329 61.6943 30.1709L61.1816 30.3076C59.222 29.7607 58.2422 28.3252 58.2422 26.001V25.7959C58.2422 22.902 59.6436 20.6006 62.4463 18.8916L64.1895 18.5498ZM60.293 26.4453C60.4525 27.5846 60.8171 28.1543 61.3867 28.1543H61.4893C62.2868 28.1543 63.54 25.7503 65.249 20.9424V20.8398L64.2578 20.6348H64.1895C62.3665 20.6348 61.0677 22.207 60.293 25.3516V26.4453ZM76.6309 18.5498C77.36 18.5498 77.7246 19.3473 77.7246 20.9424C77.7246 22.7653 77.8499 24.9756 78.1006 27.5732C78.8298 27.8923 79.1943 28.2796 79.1943 28.7354V28.8721C79.1943 29.4417 78.807 29.7949 78.0322 29.9316C77.5309 29.9316 77.098 29.4531 76.7334 28.4961C75.7764 29.7493 74.8421 30.376 73.9307 30.376C71.9027 30.3076 70.6038 29.2936 70.0342 27.334C69.8291 25.1465 69.7266 22.8223 69.7266 20.3613V19.7119C69.7266 18.9144 70.0911 18.5156 70.8203 18.5156C71.3444 18.5156 71.6634 18.9486 71.7773 19.8145V20.3613C71.3216 25.7845 72.0394 28.3708 73.9307 28.1201C75.1839 27.277 75.8333 26.1719 75.8789 24.8047V23.8477L75.4688 20.7373V20.3955C75.4688 19.165 75.8561 18.5498 76.6309 18.5498ZM84.8682 17.0117C86.0531 17.0117 86.7708 17.513 87.0215 18.5156C87.0215 18.9941 86.7025 19.2904 86.0645 19.4043H85.7568C85.4606 19.1992 85.1986 19.0967 84.9707 19.0967H84.6631C83.1592 19.7347 82.4072 20.6917 82.4072 21.9678V22.2754C82.5212 23.0273 82.8743 23.4033 83.4668 23.4033H83.7744L86.1328 22.959C87.2949 23.0957 87.876 23.6654 87.876 24.668C87.876 26.1491 86.9759 27.7327 85.1758 29.4189C84.3327 30.057 83.4782 30.376 82.6123 30.376C81.04 30.0342 80.2539 29.3848 80.2539 28.4277C80.4818 27.8581 80.8691 27.5732 81.416 27.5732L82.4756 28.3252H83.0225C84.6859 27.6872 85.5176 26.6504 85.5176 25.2148L85.3809 25.0781C84.8112 25.2832 84.1732 25.3857 83.4668 25.3857C81.7806 25.3857 80.7438 24.292 80.3564 22.1045C80.3564 20.1221 81.4616 18.5042 83.6719 17.251L84.8682 17.0117ZM92.5586 17.7979C93.8346 17.7979 94.7005 18.9486 95.1562 21.25C94.5638 23.8249 93.3447 25.1123 91.499 25.1123H91.3623V25.2148C91.7269 27.2884 92.6953 28.3252 94.2676 28.3252C95.4753 28.3252 96.4551 27.2884 97.207 25.2148L97.959 24.9072C98.4603 24.9072 98.7793 25.2946 98.916 26.0693C98.916 27.4821 97.8109 28.8151 95.6006 30.0684L93.96 30.376C92.0003 30.376 90.5306 28.9746 89.5508 26.1719C89.2773 25.0553 89.1406 24.1325 89.1406 23.4033V22.959C89.1406 20.6348 90.109 18.9486 92.0459 17.9004L92.5586 17.7979ZM91.2939 22.1045V22.1729L92.0459 22.959C92.3877 22.959 92.7067 22.4919 93.0029 21.5576V21.0107C92.889 20.3044 92.7409 19.9512 92.5586 19.9512H92.3535C92.0117 19.9512 91.6585 20.6689 91.2939 22.1045ZM104.761 17.0117C105.946 17.0117 106.663 17.513 106.914 18.5156C106.914 18.9941 106.595 19.2904 105.957 19.4043H105.649C105.353 19.1992 105.091 19.0967 104.863 19.0967H104.556C103.052 19.7347 102.3 20.6917 102.3 21.9678V22.2754C102.414 23.0273 102.767 23.4033 103.359 23.4033H103.667L106.025 22.959C107.188 23.0957 107.769 23.6654 107.769 24.668C107.769 26.1491 106.868 27.7327 105.068 29.4189C104.225 30.057 103.371 30.376 102.505 30.376C100.933 30.0342 100.146 29.3848 100.146 28.4277C100.374 27.8581 100.762 27.5732 101.309 27.5732L102.368 28.3252H102.915C104.578 27.6872 105.41 26.6504 105.41 25.2148L105.273 25.0781C104.704 25.2832 104.066 25.3857 103.359 25.3857C101.673 25.3857 100.636 24.292 100.249 22.1045C100.249 20.1221 101.354 18.5042 103.564 17.251L104.761 17.0117Z" fill="#FF6D6D"/>
</svg>
