<svg width="78" height="59" viewBox="0 0 78 59" fill="none" xmlns="http://www.w3.org/2000/svg">
<path d="M61.4608 58.02C56.8608 58.02 53.0275 56.4866 49.9608 53.42C46.8941 50.2 45.3608 46.1367 45.3608 41.23C45.3608 32.3366 47.9674 24.3633 53.1808 17.31C58.5474 10.1033 64.6808 4.73664 71.5808 1.20998L72.5008 0.97998C73.5741 0.97998 74.1108 1.59332 74.1108 2.81998C74.1108 3.12665 73.8808 3.50998 73.4208 3.96998C69.8941 7.18998 67.2108 10.3333 65.3708 13.4C63.5308 16.4666 62.6108 19.15 62.6108 21.45C62.6108 24.0566 63.9908 26.2033 66.7508 27.89C70.1241 29.73 72.6541 31.7233 74.3408 33.87C76.1808 35.8633 77.1008 38.6233 77.1008 42.15C77.1008 46.5966 75.5674 50.3533 72.5008 53.42C69.4341 56.4866 65.7541 58.02 61.4608 58.02ZM15.6908 58.02C11.3974 58.02 7.71745 56.4866 4.65078 53.42C1.58412 50.2 0.0507812 46.1367 0.0507812 41.23C0.0507812 32.3366 2.65745 24.3633 7.87078 17.31C13.2374 10.1033 19.2174 4.81331 25.8108 1.43997C26.1175 1.28664 26.5008 1.20998 26.9608 1.20998C28.0341 1.20998 28.5708 1.74665 28.5708 2.81998C28.5708 3.27998 28.4174 3.66331 28.1108 3.96998C24.5841 7.18998 21.9008 10.3333 20.0608 13.4C18.2208 16.4666 17.3008 19.15 17.3008 21.45C17.3008 24.8233 18.6808 26.97 21.4408 27.89C24.6608 29.4233 27.1141 31.34 28.8008 33.64C30.6408 35.7867 31.5608 38.6233 31.5608 42.15C31.5608 46.5966 30.0274 50.3533 26.9608 53.42C23.8941 56.4866 20.1374 58.02 15.6908 58.02Z" fill="#D8D8D8"/>
</svg>
