<svg width="112" height="52" viewBox="0 0 112 52" fill="none" xmlns="http://www.w3.org/2000/svg">
<path d="M7.13477 0.1875C9.18555 0.369792 10.416 2.23828 10.8262 5.79297V7.22852C10.5527 10.0768 9.11719 12.9365 6.51953 15.8076C7.02083 16.8786 8.05762 20.3193 9.62988 26.1299L12.501 32.6924C12.2048 33.3076 11.8174 33.5811 11.3389 33.5127C10.7236 33.4899 9.7666 31.724 8.46777 28.2148C7.5791 26.4603 6.59928 23.2246 5.52832 18.5078C5.25488 17.6875 5.03841 17.266 4.87891 17.2432L2.58887 18.4395C2.63444 23.4297 2.83952 28.1351 3.2041 32.5557C3.15853 32.9202 2.8737 33.2507 2.34961 33.5469L2.00781 33.5127C1.36979 33.4671 1.05078 32.7607 1.05078 31.3936C0.435547 18.9294 0.355794 10.1908 0.811523 5.17773C0.355794 4.76758 0.150716 4.35742 0.196289 3.94727C0.219076 3.78776 0.469727 3.48014 0.948242 3.02441C1.0166 2.09017 1.41536 1.66862 2.14453 1.75977L2.65723 1.99902C4.57129 0.677409 6.0638 0.0735677 7.13477 0.1875ZM2.8623 4.3916C2.61165 9.38184 2.5319 13.2669 2.62305 16.0469L2.93066 16.0811C5.16374 15.0329 7.02083 12.5719 8.50195 8.69824L8.74121 7.22852L8.77539 6.9209C8.98047 4.84733 8.51335 3.28646 7.37402 2.23828L6.82715 2.2041C6.05241 2.13574 4.73079 2.86491 2.8623 4.3916ZM17.457 20.7979C18.7331 20.7979 19.599 21.9486 20.0547 24.25C19.4622 26.8249 18.2432 28.1123 16.3975 28.1123H16.2607V28.2148C16.6253 30.2884 17.5938 31.3252 19.166 31.3252C20.3737 31.3252 21.3535 30.2884 22.1055 28.2148L22.8574 27.9072C23.3587 27.9072 23.6777 28.2946 23.8145 29.0693C23.8145 30.4821 22.7093 31.8151 20.499 33.0684L18.8584 33.376C16.8988 33.376 15.429 31.9746 14.4492 29.1719C14.1758 28.0553 14.0391 27.1325 14.0391 26.4033V25.959C14.0391 23.6348 15.0075 21.9486 16.9443 20.9004L17.457 20.7979ZM16.1924 25.1045V25.1729L16.9443 25.959C17.2861 25.959 17.6051 25.4919 17.9014 24.5576V24.0107C17.7874 23.3044 17.6393 22.9512 17.457 22.9512H17.252C16.9102 22.9512 16.557 23.6689 16.1924 25.1045ZM30.6846 19.5332C31.2542 19.5332 31.5391 20.2054 31.5391 21.5498L31.8467 24.4551C31.8467 24.9564 31.4593 25.2868 30.6846 25.4463C30.2061 25.4463 29.5908 24.4095 28.8389 22.3359L28.7363 22.1992H28.4971C27.6084 22.1992 27.1071 23.4639 26.9932 25.9932V26.5059C26.9932 29.0807 27.8249 30.596 29.4883 31.0518H30.1377C30.8441 31.0518 31.915 30.4251 33.3506 29.1719H33.5898V29.1035C34.2962 29.3086 34.6494 29.7074 34.6494 30.2998C34.1481 31.2113 33.0771 32.0316 31.4365 32.7607L29.7959 33.1709C27.654 33.1709 26.1159 31.5303 25.1816 28.249L24.9766 26.4033V26.1982C24.9766 22.7119 26.0247 20.6953 28.1211 20.1484H28.4287L29.4883 20.251C29.8073 19.7725 30.2061 19.5332 30.6846 19.5332ZM39.3662 20.7979C40.6423 20.7979 41.5081 21.9486 41.9639 24.25C41.3714 26.8249 40.1523 28.1123 38.3066 28.1123H38.1699V28.2148C38.5345 30.2884 39.5029 31.3252 41.0752 31.3252C42.2829 31.3252 43.2627 30.2884 44.0146 28.2148L44.7666 27.9072C45.2679 27.9072 45.5869 28.2946 45.7236 29.0693C45.7236 30.4821 44.6185 31.8151 42.4082 33.0684L40.7676 33.376C38.8079 33.376 37.3382 31.9746 36.3584 29.1719C36.085 28.0553 35.9482 27.1325 35.9482 26.4033V25.959C35.9482 23.6348 36.9167 21.9486 38.8535 20.9004L39.3662 20.7979ZM38.1016 25.1045V25.1729L38.8535 25.959C39.1953 25.959 39.5143 25.4919 39.8105 24.5576V24.0107C39.6966 23.3044 39.5485 22.9512 39.3662 22.9512H39.1611C38.8193 22.9512 38.4661 23.6689 38.1016 25.1045ZM53.0381 20.9004C55.3395 21.0827 56.2738 23.8512 55.8408 29.2061L55.5674 32.248C55.4307 33.0684 55.0319 33.4557 54.3711 33.4102C53.7559 33.3646 53.4824 32.9544 53.5508 32.1797L53.79 28.8643C54.109 24.9678 53.7673 22.9854 52.7646 22.917C51.6937 22.8258 50.9189 24.8538 50.4404 29.001L50.5771 32.6924C50.5316 33.1709 50.1442 33.4215 49.415 33.4443C48.5719 33.376 48.2529 32.1683 48.458 29.8213L47.6377 21.9941C47.6833 21.4701 48.1048 21.1852 48.9023 21.1396C49.3809 21.1624 49.6657 21.6751 49.7568 22.6777L49.8936 22.7119C50.9189 21.4359 51.9671 20.832 53.0381 20.9004ZM61.2754 3.19531C62.0046 3.19531 62.3236 5.39421 62.2324 9.79199C62.1641 14.167 62.1299 17.266 62.1299 19.0889H62.1982L64.249 18.7812C64.9098 18.8724 65.2402 19.2028 65.2402 19.7725C65.2402 20.5472 64.5225 20.9346 63.0869 20.9346L62.1982 21.2422L62.5059 32.6924C62.4147 33.4671 62.0615 33.8545 61.4463 33.8545C60.7171 33.8545 60.3525 33.319 60.3525 32.248V29.5479L60.2842 21.9258L60.1475 21.584L58.6436 21.6865C58.0055 21.5498 57.6865 21.1966 57.6865 20.627C57.6865 19.9206 58.4727 19.5674 60.0449 19.5674V19.4307C60.0449 16.514 60.0905 11.4212 60.1816 4.15234C60.1816 3.58268 60.5462 3.26367 61.2754 3.19531ZM76.9639 2.7168C77.2601 2.76237 77.6247 3.05859 78.0576 3.60547L79.083 3.50293C81.8402 3.50293 83.8226 5.09798 85.0303 8.28809C85.3265 9.29069 85.4746 10.2021 85.4746 11.0225V11.3301L85.543 11.4326L85.4746 11.5693V11.9795C85.4746 14.0075 84.791 16.0241 83.4238 18.0293C85.6569 19.4421 86.7734 21.4814 86.7734 24.1475V24.8994C86.7734 27.7477 85.7594 30.4365 83.7314 32.9658C82.8428 33.8317 81.9085 34.2646 80.9287 34.2646L79.3564 33.957H79.2539L78.8779 34.1621H78.4678C77.8525 34.1621 77.4538 33.4329 77.2715 31.9746C76.7018 29.0807 76.417 25.8223 76.417 22.1992V20.251L75.9043 19.0547V18.9863L76.417 18.0293V15.0898C76.417 10.3503 76.2461 6.52214 75.9043 3.60547C76.0638 3.01302 76.417 2.7168 76.9639 2.7168ZM78.1602 5.62207C78.3652 8.78939 78.4678 12.2301 78.4678 15.9443V18.2344H79.3564C81.1338 18.2344 82.4554 16.6165 83.3213 13.3809L83.4238 12.082V10.8857C83.4238 8.31087 82.4098 6.59049 80.3818 5.72461L79.083 5.48535H78.6729L78.1602 5.62207ZM78.7754 20.251H78.4678V22.0967C78.4678 28.4769 78.9007 31.667 79.7666 31.667C80.04 32.0316 80.359 32.2139 80.7236 32.2139H81.168C82.5352 32.2139 83.6859 30.2428 84.6201 26.3008L84.7227 24.3525C84.7227 21.7549 83.8682 20.251 82.1592 19.8408H81.2363L78.7754 20.251ZM90.499 2.7168C90.8408 2.73958 91.1598 3.02441 91.4561 3.57129C91.2965 3.82194 91.194 4.27767 91.1484 4.93848L91.1143 5.38281L91.3193 18.8496C91.2054 24.9564 91.2738 29.4339 91.5244 32.2822L91.5928 32.5557C91.3877 32.9886 91.0573 33.1937 90.6016 33.1709C89.5762 33.1025 89.166 31.6898 89.3711 28.9326C89.2344 27.4287 89.166 20.513 89.166 8.18555C89.0293 7.43359 88.9951 6.44238 89.0635 5.21191V5.0752C89.1774 3.45736 89.6559 2.67122 90.499 2.7168ZM98.4629 21.208C100.423 21.9144 101.459 24.0791 101.573 27.7021V27.9072C101.482 30.9378 100.696 32.7949 99.2148 33.4785L98.2578 33.6152C95.8197 33.0228 94.6006 31.1885 94.6006 28.1123V28.0098C94.6006 24.6829 95.6715 22.4613 97.8135 21.3447L98.4629 21.208ZM96.6172 27.7021V28.4541C96.8678 30.596 97.5286 31.667 98.5996 31.667C99.2148 30.9834 99.5225 29.6618 99.5225 27.7021V27.4971C99.4085 25.0589 99.0212 23.7259 98.3604 23.498C97.1982 24.0221 96.6172 25.4235 96.6172 27.7021ZM110.357 20.7295C111.223 20.7295 111.656 21.9372 111.656 24.3525C111.793 25.6742 111.861 28.6934 111.861 33.4102C111.861 39.2207 111.326 44.4274 110.255 49.0303C109.343 50.762 108.113 51.6279 106.563 51.6279C104.49 51.6279 102.234 50.3975 99.7959 47.9365L99.5908 47.4238C99.7503 46.6947 100.115 46.3301 100.685 46.3301C100.89 46.3301 101.459 46.7972 102.394 47.7314C104.057 48.9619 105.344 49.5771 106.256 49.5771H106.905C108.318 49.5771 109.138 46.7402 109.366 41.0664C109.685 38.4915 109.845 35.7572 109.845 32.8633V31.667C108.774 32.1911 107.942 32.4531 107.35 32.4531C105.481 32.4531 104.16 31.3366 103.385 29.1035C103.066 28.2832 102.906 27.4173 102.906 26.5059C102.906 23.9766 103.954 22.1992 106.051 21.1738L107.486 21.0371C108.01 21.0371 108.535 21.208 109.059 21.5498H109.298C109.731 21.0029 110.084 20.7295 110.357 20.7295ZM106.358 23.0537C105.447 23.8512 104.991 25.0703 104.991 26.7109C104.991 28.8073 105.675 30.0378 107.042 30.4023H107.486C108.74 30.4023 109.366 29.2516 109.366 26.9502C109.184 24.4437 108.58 23.1904 107.555 23.1904L106.358 23.0537Z" fill="#2E4049"/>
</svg>
