<svg width="90" height="35" viewBox="0 0 90 35" fill="none" xmlns="http://www.w3.org/2000/svg">
<path d="M6.14355 0.178711C8.4222 0.178711 10.04 1.5459 10.9971 4.28027C11.1338 4.55371 11.2021 4.95247 11.2021 5.47656C11.2021 6.04622 10.849 6.36523 10.1426 6.43359C9.52734 6.43359 9.13997 5.68164 8.98047 4.17773C8.20573 2.87891 7.33984 2.22949 6.38281 2.22949H5.9043C4.51432 2.22949 3.69401 3.59668 3.44336 6.33105V6.43359C3.44336 9.71484 5.52832 14.6709 9.69824 21.3018C10.9971 23.8311 11.6465 25.9502 11.6465 27.6592C11.6465 29.9834 10.4616 31.7835 8.0918 33.0596L6.89551 33.2646C4.79915 33.2646 2.79395 31.8291 0.879883 28.958C0.515299 28.32 0.333008 27.6364 0.333008 26.9072C0.333008 25.7451 0.731771 25.0957 1.5293 24.959H1.83691C2.33822 25.3008 2.58887 25.6198 2.58887 25.916L2.38379 26.9072V26.9756C2.38379 28.4567 3.60286 29.8239 6.04102 31.0771L6.69043 31.2139H6.99805C8.18294 31.2139 9.04883 30.1999 9.5957 28.1719V27.7617C9.5957 25.3236 8.01204 21.7347 4.84473 16.9951C2.56608 12.5062 1.42676 8.98568 1.42676 6.43359C1.42676 3.5625 2.5319 1.55729 4.74219 0.417969L6.14355 0.178711ZM20.499 20.5498C21.2282 20.5498 21.5928 21.3473 21.5928 22.9424C21.5928 24.7653 21.7181 26.9756 21.9688 29.5732C22.6979 29.8923 23.0625 30.2796 23.0625 30.7354V30.8721C23.0625 31.4417 22.6751 31.7949 21.9004 31.9316C21.3991 31.9316 20.9661 31.4531 20.6016 30.4961C19.6445 31.7493 18.7103 32.376 17.7988 32.376C15.7708 32.3076 14.472 31.2936 13.9023 29.334C13.6973 27.1465 13.5947 24.8223 13.5947 22.3613V21.7119C13.5947 20.9144 13.9593 20.5156 14.6885 20.5156C15.2126 20.5156 15.5316 20.9486 15.6455 21.8145V22.3613C15.1898 27.7845 15.9076 30.3708 17.7988 30.1201C19.0521 29.277 19.7015 28.1719 19.7471 26.8047V25.8477L19.3369 22.7373V22.3955C19.3369 21.165 19.7243 20.5498 20.499 20.5498ZM25.1133 0.930664C25.8424 1.0446 26.207 1.36361 26.207 1.8877L25.9678 3.87012V4.38281C26.3324 12.8138 26.8451 18.4079 27.5059 21.165L27.5742 21.3018H27.7109C28.2806 20.7321 28.9984 20.3561 29.8643 20.1738C32.3936 20.903 33.6582 22.7487 33.6582 25.7109V26.5654C33.5443 30.0518 32.4505 32.2051 30.377 33.0254L29.5566 33.1279H29.2148L29.0781 33.0254L28.7705 33.1279V33.6748C28.7705 34.0622 28.554 34.347 28.1211 34.5293H27.7109C26.9818 34.5293 26.6172 33.7432 26.6172 32.1709C26.4805 31.2139 26.1615 30.3024 25.6602 29.4365V29.1289L25.9678 28.582L25.7627 26.4629L25.8994 25.2666C24.5778 15.2633 23.917 8.19954 23.917 4.0752C23.917 1.97884 24.3158 0.930664 25.1133 0.930664ZM28.0527 25.4033C28.0527 29.0947 28.4401 30.9404 29.2148 30.9404L29.3516 31.0771H29.9668C31.1061 30.1885 31.6758 28.582 31.6758 26.2578C31.6758 24.3665 31.1745 23.0677 30.1719 22.3613H29.4199C28.5085 23.0677 28.0527 24.0817 28.0527 25.4033ZM39.8789 19.0117C41.0638 19.0117 41.7816 19.513 42.0322 20.5156C42.0322 20.9941 41.7132 21.2904 41.0752 21.4043H40.7676C40.4714 21.1992 40.2093 21.0967 39.9814 21.0967H39.6738C38.1699 21.7347 37.418 22.6917 37.418 23.9678V24.2754C37.5319 25.0273 37.8851 25.4033 38.4775 25.4033H38.7852L41.1436 24.959C42.3057 25.0957 42.8867 25.6654 42.8867 26.668C42.8867 28.1491 41.9867 29.7327 40.1865 31.4189C39.3434 32.057 38.4889 32.376 37.623 32.376C36.0508 32.0342 35.2646 31.3848 35.2646 30.4277C35.4925 29.8581 35.8799 29.5732 36.4268 29.5732L37.4863 30.3252H38.0332C39.6966 29.6872 40.5283 28.6504 40.5283 27.2148L40.3916 27.0781C39.8219 27.2832 39.1839 27.3857 38.4775 27.3857C36.7913 27.3857 35.7546 26.292 35.3672 24.1045C35.3672 22.1221 36.4723 20.5042 38.6826 19.251L39.8789 19.0117ZM49.791 18.5332C50.3607 18.5332 50.6455 19.2054 50.6455 20.5498L50.9531 23.4551C50.9531 23.9564 50.5658 24.2868 49.791 24.4463C49.3125 24.4463 48.6973 23.4095 47.9453 21.3359L47.8428 21.1992H47.6035C46.7148 21.1992 46.2135 22.4639 46.0996 24.9932V25.5059C46.0996 28.0807 46.9313 29.596 48.5947 30.0518H49.2441C49.9505 30.0518 51.0215 29.4251 52.457 28.1719H52.6963V28.1035C53.4027 28.3086 53.7559 28.7074 53.7559 29.2998C53.2546 30.2113 52.1836 31.0316 50.543 31.7607L48.9023 32.1709C46.7604 32.1709 45.2223 30.5303 44.2881 27.249L44.083 25.4033V25.1982C44.083 21.7119 45.1312 19.6953 47.2275 19.1484H47.5352L48.5947 19.251C48.9137 18.7725 49.3125 18.5332 49.791 18.5332ZM55.6699 18.2598C56.2852 18.2598 56.7523 19.0003 57.0713 20.4814H57.1738C58.0397 19.4561 58.974 18.9434 59.9766 18.9434C61.6172 19.2396 62.4375 19.7523 62.4375 20.4814C62.2324 21.1195 61.8792 21.4385 61.3779 21.4385L60.0791 21.0283H59.7373C58.3929 21.279 57.7207 24.0475 57.7207 29.334V30.9404C57.584 31.6468 57.265 32 56.7637 32C56.0345 32 55.6699 31.5671 55.6699 30.7012V26.7363C55.6699 23.8197 55.3053 21.2676 54.5762 19.0801C54.7585 18.5332 55.123 18.2598 55.6699 18.2598ZM65.8213 14.6367C66.4137 14.6367 66.7783 15.0241 66.915 15.7988C66.915 16.1634 66.6644 16.5166 66.1631 16.8584H65.8213C65.1833 16.8584 64.8643 16.471 64.8643 15.6963C65.0465 14.9899 65.3656 14.6367 65.8213 14.6367ZM66.0605 19.251C66.8353 19.3649 67.0518 20.5156 66.71 22.7031C66.4365 24.5033 66.391 27.5225 66.5732 31.7607C66.2314 32.4215 65.7871 32.7064 65.2402 32.6152C64.6022 32.5241 64.3402 31.3962 64.4541 29.2314C64.4085 25.4489 64.6022 22.2816 65.0352 19.7295C65.0807 19.3877 65.4225 19.2282 66.0605 19.251ZM70.0596 0.930664C70.7887 1.0446 71.1533 1.36361 71.1533 1.8877L70.9141 3.87012V4.38281C71.2786 12.8138 71.7913 18.4079 72.4521 21.165L72.5205 21.3018H72.6572C73.2269 20.7321 73.9447 20.3561 74.8105 20.1738C77.3398 20.903 78.6045 22.7487 78.6045 25.7109V26.5654C78.4906 30.0518 77.3968 32.2051 75.3232 33.0254L74.5029 33.1279H74.1611L74.0244 33.0254L73.7168 33.1279V33.6748C73.7168 34.0622 73.5003 34.347 73.0674 34.5293H72.6572C71.9281 34.5293 71.5635 33.7432 71.5635 32.1709C71.4268 31.2139 71.1077 30.3024 70.6064 29.4365V29.1289L70.9141 28.582L70.709 26.4629L70.8457 25.2666C69.5241 15.2633 68.8633 8.19954 68.8633 4.0752C68.8633 1.97884 69.262 0.930664 70.0596 0.930664ZM72.999 25.4033C72.999 29.0947 73.3864 30.9404 74.1611 30.9404L74.2979 31.0771H74.9131C76.0524 30.1885 76.6221 28.582 76.6221 26.2578C76.6221 24.3665 76.1208 23.0677 75.1182 22.3613H74.3662C73.4548 23.0677 72.999 24.0817 72.999 25.4033ZM83.6289 19.7979C84.9049 19.7979 85.7708 20.9486 86.2266 23.25C85.6341 25.8249 84.415 27.1123 82.5693 27.1123H82.4326V27.2148C82.7972 29.2884 83.7656 30.3252 85.3379 30.3252C86.5456 30.3252 87.5254 29.2884 88.2773 27.2148L89.0293 26.9072C89.5306 26.9072 89.8496 27.2946 89.9863 28.0693C89.9863 29.4821 88.8812 30.8151 86.6709 32.0684L85.0303 32.376C83.0706 32.376 81.6009 30.9746 80.6211 28.1719C80.3477 27.0553 80.2109 26.1325 80.2109 25.4033V24.959C80.2109 22.6348 81.1794 20.9486 83.1162 19.9004L83.6289 19.7979ZM82.3643 24.1045V24.1729L83.1162 24.959C83.458 24.959 83.777 24.4919 84.0732 23.5576V23.0107C83.9593 22.3044 83.8112 21.9512 83.6289 21.9512H83.4238C83.082 21.9512 82.7288 22.6689 82.3643 24.1045Z" fill="white"/>
</svg>
