<svg width="50" height="36" viewBox="0 0 50 36" fill="none" xmlns="http://www.w3.org/2000/svg">
<path d="M5.77393 0.495117H7.48291C9.73877 0.495117 11.2541 0.89388 12.0288 1.69141L12.2339 2.34082V2.44336C12.2339 3.01302 11.8807 3.33203 11.1743 3.40039C10.4907 2.83073 9.12354 2.5459 7.07275 2.5459H6.73096V2.68262C6.73096 6.89811 6.77653 12.7428 6.86768 20.2168C6.98161 27.6908 7.3348 31.8265 7.92725 32.624C7.69938 33.262 7.31201 33.5811 6.76514 33.5811C5.80811 34.6064 5.22705 30.6872 5.02197 21.8232C4.81689 12.9593 4.71436 6.5791 4.71436 2.68262V2.5459L1.67236 2.75098C1.1027 2.50033 0.817871 2.14714 0.817871 1.69141C0.817871 0.89388 2.46989 0.495117 5.77393 0.495117ZM17.2583 20.7979C18.5343 20.7979 19.4002 21.9486 19.856 24.25C19.2635 26.8249 18.0444 28.1123 16.1987 28.1123H16.062V28.2148C16.4266 30.2884 17.395 31.3252 18.9673 31.3252C20.175 31.3252 21.1548 30.2884 21.9067 28.2148L22.6587 27.9072C23.16 27.9072 23.479 28.2946 23.6157 29.0693C23.6157 30.4821 22.5106 31.8151 20.3003 33.0684L18.6597 33.376C16.7 33.376 15.2303 31.9746 14.2505 29.1719C13.9771 28.0553 13.8403 27.1325 13.8403 26.4033V25.959C13.8403 23.6348 14.8088 21.9486 16.7456 20.9004L17.2583 20.7979ZM15.9937 25.1045V25.1729L16.7456 25.959C17.0874 25.959 17.4064 25.4919 17.7026 24.5576V24.0107C17.5887 23.3044 17.4406 22.9512 17.2583 22.9512H17.0532C16.7114 22.9512 16.3582 23.6689 15.9937 25.1045ZM30.6226 21.5498L32.6733 21.8916V21.7891C33.1746 21.7891 33.562 22.1878 33.8354 22.9854L33.7329 25.1387V26.6426C33.7329 28.8529 34.0519 30.5049 34.6899 31.5986C34.5076 32.1683 34.1545 32.4531 33.6304 32.4531C32.8784 32.4531 32.3315 31.5872 31.9897 29.8555L31.9214 29.3086H31.6138C30.7935 31.2454 29.6313 32.5329 28.1274 33.1709L27.6147 33.3076C25.6551 32.7607 24.6753 31.3252 24.6753 29.001V28.7959C24.6753 25.902 26.0767 23.6006 28.8794 21.8916L30.6226 21.5498ZM26.7261 29.4453C26.8856 30.5846 27.2502 31.1543 27.8198 31.1543H27.9224C28.7199 31.1543 29.9731 28.7503 31.6821 23.9424V23.8398L30.6909 23.6348H30.6226C28.7996 23.6348 27.5008 25.207 26.7261 28.3516V29.4453ZM46.0718 20.1826C47.7352 20.9801 48.5327 23.5208 48.4644 27.8047C48.5783 30.0833 48.8859 31.667 49.3872 32.5557V32.6924C49.3416 33.1709 48.9771 33.4785 48.2935 33.6152C47.0402 33.5013 46.4022 30.4023 46.3794 24.3184L45.9009 22.7461L45.4907 22.7119C44.716 23.6462 44.2716 24.7855 44.1577 26.1299C44.021 27.1325 43.9868 28.7617 44.0552 31.0176C43.7134 31.6328 43.3146 31.9176 42.8589 31.8721C42.0841 31.7581 41.731 30.277 41.7993 27.4287C41.3892 24.5348 40.9448 23.0651 40.4663 23.0195H40.2612C39.5776 23.2246 39.1675 23.9424 39.0308 25.1729L39.3726 31.8037L39.3384 32.248C39.27 32.7493 38.8713 33.0911 38.1421 33.2734C37.0028 33.1595 36.604 29.1833 36.9458 21.3447C37.0142 20.8662 37.3674 20.5472 38.0054 20.3877C38.6434 20.6383 38.951 20.9232 38.9282 21.2422H39.0308L40.5688 21.0029C41.3436 21.0941 42.1183 21.7093 42.8931 22.8486L42.9614 22.8828C44.0324 21.3105 45.0692 20.4105 46.0718 20.1826Z" fill="#FF6D6D"/>
</svg>
