<svg width="103" height="36" viewBox="0 0 103 36" fill="none" xmlns="http://www.w3.org/2000/svg">
<path d="M5.70312 0.495117H7.41211C9.66797 0.495117 11.1833 0.89388 11.958 1.69141L12.1631 2.34082V2.44336C12.1631 3.01302 11.8099 3.33203 11.1035 3.40039C10.4199 2.83073 9.05273 2.5459 7.00195 2.5459H6.66016V2.68262C6.66016 6.89811 6.70573 12.7428 6.79688 20.2168C6.91081 27.6908 7.264 31.8265 7.85645 32.624C7.62858 33.262 7.24121 33.5811 6.69434 33.5811C5.7373 34.6064 5.15625 30.6872 4.95117 21.8232C4.74609 12.9593 4.64355 6.5791 4.64355 2.68262V2.5459L1.60156 2.75098C1.0319 2.50033 0.74707 2.14714 0.74707 1.69141C0.74707 0.89388 2.39909 0.495117 5.70312 0.495117ZM17.1875 20.7979C18.4635 20.7979 19.3294 21.9486 19.7852 24.25C19.1927 26.8249 17.9736 28.1123 16.1279 28.1123H15.9912V28.2148C16.3558 30.2884 17.3242 31.3252 18.8965 31.3252C20.1042 31.3252 21.084 30.2884 21.8359 28.2148L22.5879 27.9072C23.0892 27.9072 23.4082 28.2946 23.5449 29.0693C23.5449 30.4821 22.4398 31.8151 20.2295 33.0684L18.5889 33.376C16.6292 33.376 15.1595 31.9746 14.1797 29.1719C13.9062 28.0553 13.7695 27.1325 13.7695 26.4033V25.959C13.7695 23.6348 14.738 21.9486 16.6748 20.9004L17.1875 20.7979ZM15.9229 25.1045V25.1729L16.6748 25.959C17.0166 25.959 17.3356 25.4919 17.6318 24.5576V24.0107C17.5179 23.3044 17.3698 22.9512 17.1875 22.9512H16.9824C16.6406 22.9512 16.2874 23.6689 15.9229 25.1045ZM29.3896 20.0117C30.5745 20.0117 31.2923 20.513 31.543 21.5156C31.543 21.9941 31.224 22.2904 30.5859 22.4043H30.2783C29.9821 22.1992 29.7201 22.0967 29.4922 22.0967H29.1846C27.6807 22.7347 26.9287 23.6917 26.9287 24.9678V25.2754C27.0426 26.0273 27.3958 26.4033 27.9883 26.4033H28.2959L30.6543 25.959C31.8164 26.0957 32.3975 26.6654 32.3975 27.668C32.3975 29.1491 31.4974 30.7327 29.6973 32.4189C28.8542 33.057 27.9997 33.376 27.1338 33.376C25.5615 33.0342 24.7754 32.3848 24.7754 31.4277C25.0033 30.8581 25.3906 30.5732 25.9375 30.5732L26.9971 31.3252H27.5439C29.2074 30.6872 30.0391 29.6504 30.0391 28.2148L29.9023 28.0781C29.3327 28.2832 28.6947 28.3857 27.9883 28.3857C26.3021 28.3857 25.2653 27.292 24.8779 25.1045C24.8779 23.1221 25.9831 21.5042 28.1934 20.251L29.3896 20.0117ZM37.0459 3.19531C37.7751 3.19531 38.0941 5.39421 38.0029 9.79199C37.9346 14.167 37.9004 17.266 37.9004 19.0889H37.9688L40.0195 18.7812C40.6803 18.8724 41.0107 19.2028 41.0107 19.7725C41.0107 20.5472 40.293 20.9346 38.8574 20.9346L37.9688 21.2422L38.2764 32.6924C38.1852 33.4671 37.832 33.8545 37.2168 33.8545C36.4876 33.8545 36.123 33.319 36.123 32.248V29.5479L36.0547 21.9258L35.918 21.584L34.4141 21.6865C33.776 21.5498 33.457 21.1966 33.457 20.627C33.457 19.9206 34.2432 19.5674 35.8154 19.5674V19.4307C35.8154 16.514 35.861 11.4212 35.9521 4.15234C35.9521 3.58268 36.3167 3.26367 37.0459 3.19531ZM44.6338 15.6367C45.2262 15.6367 45.5908 16.0241 45.7275 16.7988C45.7275 17.1634 45.4769 17.5166 44.9756 17.8584H44.6338C43.9958 17.8584 43.6768 17.471 43.6768 16.6963C43.859 15.9899 44.1781 15.6367 44.6338 15.6367ZM44.873 20.251C45.6478 20.3649 45.8643 21.5156 45.5225 23.7031C45.249 25.5033 45.2035 28.5225 45.3857 32.7607C45.0439 33.4215 44.5996 33.7064 44.0527 33.6152C43.4147 33.5241 43.1527 32.3962 43.2666 30.2314C43.221 26.4489 43.4147 23.2816 43.8477 20.7295C43.8932 20.3877 44.235 20.2282 44.873 20.251ZM58.1006 20.1826C59.764 20.9801 60.5615 23.5208 60.4932 27.8047C60.6071 30.0833 60.9147 31.667 61.416 32.5557V32.6924C61.3704 33.1709 61.0059 33.4785 60.3223 33.6152C59.069 33.5013 58.431 30.4023 58.4082 24.3184L57.9297 22.7461L57.5195 22.7119C56.7448 23.6462 56.3005 24.7855 56.1865 26.1299C56.0498 27.1325 56.0156 28.7617 56.084 31.0176C55.7422 31.6328 55.3434 31.9176 54.8877 31.8721C54.113 31.7581 53.7598 30.277 53.8281 27.4287C53.418 24.5348 52.9736 23.0651 52.4951 23.0195H52.29C51.6064 23.2246 51.1963 23.9424 51.0596 25.1729L51.4014 31.8037L51.3672 32.248C51.2988 32.7493 50.9001 33.0911 50.1709 33.2734C49.0316 33.1595 48.6328 29.1833 48.9746 21.3447C49.043 20.8662 49.3962 20.5472 50.0342 20.3877C50.6722 20.6383 50.9798 20.9232 50.957 21.2422H51.0596L52.5977 21.0029C53.3724 21.0941 54.1471 21.7093 54.9219 22.8486L54.9902 22.8828C56.0612 21.3105 57.098 20.4105 58.1006 20.1826ZM66.9873 21.208C68.9469 21.9144 69.9837 24.0791 70.0977 27.7021V27.9072C70.0065 30.9378 69.2204 32.7949 67.7393 33.4785L66.7822 33.6152C64.3441 33.0228 63.125 31.1885 63.125 28.1123V28.0098C63.125 24.6829 64.196 22.4613 66.3379 21.3447L66.9873 21.208ZM65.1416 27.7021V28.4541C65.3923 30.596 66.0531 31.667 67.124 31.667C67.7393 30.9834 68.0469 29.6618 68.0469 27.7021V27.4971C67.9329 25.0589 67.5456 23.7259 66.8848 23.498C65.7227 24.0221 65.1416 25.4235 65.1416 27.7021ZM77.7881 20.9004C80.0895 21.0827 81.0238 23.8512 80.5908 29.2061L80.3174 32.248C80.1807 33.0684 79.7819 33.4557 79.1211 33.4102C78.5059 33.3646 78.2324 32.9544 78.3008 32.1797L78.54 28.8643C78.859 24.9678 78.5173 22.9854 77.5146 22.917C76.4437 22.8258 75.6689 24.8538 75.1904 29.001L75.3271 32.6924C75.2816 33.1709 74.8942 33.4215 74.165 33.4443C73.3219 33.376 73.0029 32.1683 73.208 29.8213L72.3877 21.9941C72.4333 21.4701 72.8548 21.1852 73.6523 21.1396C74.1309 21.1624 74.4157 21.6751 74.5068 22.6777L74.6436 22.7119C75.6689 21.4359 76.7171 20.832 77.7881 20.9004ZM84.8633 15.6367C85.4557 15.6367 85.8203 16.0241 85.957 16.7988C85.957 17.1634 85.7064 17.5166 85.2051 17.8584H84.8633C84.2253 17.8584 83.9062 17.471 83.9062 16.6963C84.0885 15.9899 84.4076 15.6367 84.8633 15.6367ZM85.1025 20.251C85.8773 20.3649 86.0938 21.5156 85.752 23.7031C85.4785 25.5033 85.4329 28.5225 85.6152 32.7607C85.2734 33.4215 84.8291 33.7064 84.2822 33.6152C83.6442 33.5241 83.3822 32.3962 83.4961 30.2314C83.4505 26.4489 83.6442 23.2816 84.0771 20.7295C84.1227 20.3877 84.4645 20.2282 85.1025 20.251ZM93.8867 21.5498L95.9375 21.8916V21.7891C96.4388 21.7891 96.8262 22.1878 97.0996 22.9854L96.9971 25.1387V26.6426C96.9971 28.8529 97.3161 30.5049 97.9541 31.5986C97.7718 32.1683 97.4186 32.4531 96.8945 32.4531C96.1426 32.4531 95.5957 31.5872 95.2539 29.8555L95.1855 29.3086H94.8779C94.0576 31.2454 92.8955 32.5329 91.3916 33.1709L90.8789 33.3076C88.9193 32.7607 87.9395 31.3252 87.9395 29.001V28.7959C87.9395 25.902 89.3408 23.6006 92.1436 21.8916L93.8867 21.5498ZM89.9902 29.4453C90.1497 30.5846 90.5143 31.1543 91.084 31.1543H91.1865C91.984 31.1543 93.2373 28.7503 94.9463 23.9424V23.8398L93.9551 23.6348H93.8867C92.0638 23.6348 90.765 25.207 89.9902 28.3516V29.4453ZM101.167 2.7168C101.509 2.73958 101.828 3.02441 102.124 3.57129C101.965 3.82194 101.862 4.27767 101.816 4.93848L101.782 5.38281L101.987 18.8496C101.873 24.9564 101.942 29.4339 102.192 32.2822L102.261 32.5557C102.056 32.9886 101.725 33.1937 101.27 33.1709C100.244 33.1025 99.834 31.6898 100.039 28.9326C99.9023 27.4287 99.834 20.513 99.834 8.18555C99.6973 7.43359 99.6631 6.44238 99.7314 5.21191V5.0752C99.8454 3.45736 100.324 2.67122 101.167 2.7168Z" fill="#FF6D6D"/>
</svg>
