<svg width="326" height="23" viewBox="0 0 326 23" fill="none" xmlns="http://www.w3.org/2000/svg">
<path d="M43.2263 18.5V10.346C43.2263 10.106 43.2263 9.86 43.2263 9.608C43.2383 9.344 43.2503 9.068 43.2623 8.78C42.8543 9.176 42.3863 9.518 41.8583 9.806C41.3423 10.082 40.8083 10.28 40.2563 10.4L39.8963 8.726C40.1483 8.69 40.4423 8.606 40.7783 8.474C41.1143 8.342 41.4623 8.174 41.8223 7.97C42.1823 7.766 42.5123 7.55 42.8123 7.322C43.1123 7.082 43.3463 6.848 43.5143 6.62H45.1343V18.5H43.2263ZM52.4665 18.68C51.0385 18.68 49.9165 18.164 49.1005 17.132C48.2965 16.088 47.8945 14.564 47.8945 12.56C47.8945 10.556 48.2965 9.038 49.1005 8.006C49.9165 6.962 51.0385 6.44 52.4665 6.44C53.9065 6.44 55.0285 6.962 55.8325 8.006C56.6485 9.038 57.0565 10.556 57.0565 12.56C57.0565 14.564 56.6485 16.088 55.8325 17.132C55.0285 18.164 53.9065 18.68 52.4665 18.68ZM52.4665 17.042C53.0425 17.042 53.5225 16.88 53.9065 16.556C54.3025 16.22 54.5965 15.722 54.7885 15.062C54.9925 14.39 55.0945 13.556 55.0945 12.56C55.0945 11.564 54.9925 10.736 54.7885 10.076C54.5965 9.404 54.3025 8.906 53.9065 8.582C53.5225 8.246 53.0425 8.078 52.4665 8.078C51.8905 8.078 51.4045 8.246 51.0085 8.582C50.6245 8.906 50.3365 9.404 50.1445 10.076C49.9525 10.736 49.8565 11.564 49.8565 12.56C49.8565 13.556 49.9525 14.39 50.1445 15.062C50.3365 15.722 50.6245 16.22 51.0085 16.556C51.4045 16.88 51.8905 17.042 52.4665 17.042ZM60.7992 9.32C61.2072 9.32 61.5312 9.44 61.7712 9.68C62.0232 9.908 62.1492 10.22 62.1492 10.616C62.1492 11.012 62.0232 11.33 61.7712 11.57C61.5312 11.81 61.2072 11.93 60.7992 11.93C60.3792 11.93 60.0432 11.81 59.7912 11.57C59.5512 11.33 59.4312 11.012 59.4312 10.616C59.4312 10.22 59.5512 9.908 59.7912 9.68C60.0432 9.44 60.3792 9.32 60.7992 9.32ZM60.7992 16.07C61.2072 16.07 61.5312 16.19 61.7712 16.43C62.0232 16.658 62.1492 16.97 62.1492 17.366C62.1492 17.762 62.0232 18.08 61.7712 18.32C61.5312 18.56 61.2072 18.68 60.7992 18.68C60.3792 18.68 60.0432 18.56 59.7912 18.32C59.5512 18.08 59.4312 17.762 59.4312 17.366C59.4312 16.97 59.5512 16.658 59.7912 16.43C60.0432 16.19 60.3792 16.07 60.7992 16.07ZM69.1305 18.68C67.7025 18.68 66.5805 18.164 65.7645 17.132C64.9605 16.088 64.5585 14.564 64.5585 12.56C64.5585 10.556 64.9605 9.038 65.7645 8.006C66.5805 6.962 67.7025 6.44 69.1305 6.44C70.5705 6.44 71.6925 6.962 72.4965 8.006C73.3125 9.038 73.7205 10.556 73.7205 12.56C73.7205 14.564 73.3125 16.088 72.4965 17.132C71.6925 18.164 70.5705 18.68 69.1305 18.68ZM69.1305 17.042C69.7065 17.042 70.1865 16.88 70.5705 16.556C70.9665 16.22 71.2605 15.722 71.4525 15.062C71.6565 14.39 71.7585 13.556 71.7585 12.56C71.7585 11.564 71.6565 10.736 71.4525 10.076C71.2605 9.404 70.9665 8.906 70.5705 8.582C70.1865 8.246 69.7065 8.078 69.1305 8.078C68.5545 8.078 68.0685 8.246 67.6725 8.582C67.2885 8.906 67.0005 9.404 66.8085 10.076C66.6165 10.736 66.5205 11.564 66.5205 12.56C66.5205 13.556 66.6165 14.39 66.8085 15.062C67.0005 15.722 67.2885 16.22 67.6725 16.556C68.0685 16.88 68.5545 17.042 69.1305 17.042ZM80.4333 18.68C79.0053 18.68 77.8833 18.164 77.0673 17.132C76.2633 16.088 75.8613 14.564 75.8613 12.56C75.8613 10.556 76.2633 9.038 77.0673 8.006C77.8833 6.962 79.0053 6.44 80.4333 6.44C81.8733 6.44 82.9953 6.962 83.7993 8.006C84.6153 9.038 85.0233 10.556 85.0233 12.56C85.0233 14.564 84.6153 16.088 83.7993 17.132C82.9953 18.164 81.8733 18.68 80.4333 18.68ZM80.4333 17.042C81.0093 17.042 81.4893 16.88 81.8733 16.556C82.2693 16.22 82.5633 15.722 82.7553 15.062C82.9593 14.39 83.0613 13.556 83.0613 12.56C83.0613 11.564 82.9593 10.736 82.7553 10.076C82.5633 9.404 82.2693 8.906 81.8733 8.582C81.4893 8.246 81.0093 8.078 80.4333 8.078C79.8573 8.078 79.3713 8.246 78.9753 8.582C78.5913 8.906 78.3033 9.404 78.1113 10.076C77.9193 10.736 77.8233 11.564 77.8233 12.56C77.8233 13.556 77.9193 14.39 78.1113 15.062C78.3033 15.722 78.5913 16.22 78.9753 16.556C79.3713 16.88 79.8573 17.042 80.4333 17.042ZM102.95 18.5H100.916L99.7823 15.386H94.7963L93.6623 18.5H91.6823L96.1643 6.62H98.4683L102.95 18.5ZM95.3363 13.82H99.2423L97.2983 8.276L95.3363 13.82ZM117.207 6.62V18.5H115.425V11.624L115.569 8.348H115.551L111.933 18.5H110.331L106.713 8.348H106.695L106.839 11.624V18.5H105.057V6.62H107.919L110.313 13.496L111.141 16.322H111.177L112.023 13.496L114.399 6.62H117.207ZM132.53 12.866V14.648H126.392V12.866H132.53ZM143.316 18.5V10.346C143.316 10.106 143.316 9.86 143.316 9.608C143.328 9.344 143.34 9.068 143.352 8.78C142.944 9.176 142.476 9.518 141.948 9.806C141.432 10.082 140.898 10.28 140.346 10.4L139.986 8.726C140.238 8.69 140.532 8.606 140.868 8.474C141.204 8.342 141.552 8.174 141.912 7.97C142.272 7.766 142.602 7.55 142.902 7.322C143.202 7.082 143.436 6.848 143.604 6.62H145.224V18.5H143.316ZM152.484 6.458C153.288 6.458 153.984 6.59 154.572 6.854C155.172 7.106 155.634 7.466 155.958 7.934C156.282 8.402 156.444 8.966 156.444 9.626C156.444 10.238 156.294 10.778 155.994 11.246C155.706 11.702 155.28 12.05 154.716 12.29V12.308C155.4 12.56 155.94 12.938 156.336 13.442C156.744 13.934 156.948 14.546 156.948 15.278C156.948 15.986 156.762 16.592 156.39 17.096C156.03 17.6 155.514 17.99 154.842 18.266C154.182 18.542 153.396 18.68 152.484 18.68C151.572 18.68 150.78 18.542 150.108 18.266C149.448 17.99 148.932 17.6 148.56 17.096C148.188 16.592 148.002 15.986 148.002 15.278C148.002 14.558 148.2 13.946 148.596 13.442C148.992 12.938 149.544 12.56 150.252 12.308V12.29C149.712 12.062 149.286 11.72 148.974 11.264C148.662 10.796 148.506 10.25 148.506 9.626C148.506 8.966 148.668 8.402 148.992 7.934C149.316 7.466 149.778 7.106 150.378 6.854C150.978 6.59 151.68 6.458 152.484 6.458ZM152.484 8.078C151.848 8.078 151.338 8.234 150.954 8.546C150.582 8.858 150.396 9.284 150.396 9.824C150.396 10.364 150.588 10.79 150.972 11.102C151.356 11.402 151.86 11.552 152.484 11.552C153.108 11.552 153.606 11.402 153.978 11.102C154.362 10.79 154.554 10.364 154.554 9.824C154.554 9.284 154.368 8.858 153.996 8.546C153.624 8.234 153.12 8.078 152.484 8.078ZM152.484 17.06C153.012 17.06 153.462 16.982 153.834 16.826C154.206 16.67 154.494 16.442 154.698 16.142C154.902 15.842 155.004 15.494 155.004 15.098C155.004 14.678 154.896 14.324 154.68 14.036C154.476 13.736 154.188 13.508 153.816 13.352C153.444 13.196 153 13.118 152.484 13.118C151.98 13.118 151.536 13.196 151.152 13.352C150.768 13.508 150.468 13.736 150.252 14.036C150.048 14.324 149.946 14.678 149.946 15.098C149.946 15.494 150.048 15.842 150.252 16.142C150.456 16.442 150.75 16.67 151.134 16.826C151.518 16.982 151.968 17.06 152.484 17.06ZM160.731 9.32C161.139 9.32 161.463 9.44 161.703 9.68C161.955 9.908 162.081 10.22 162.081 10.616C162.081 11.012 161.955 11.33 161.703 11.57C161.463 11.81 161.139 11.93 160.731 11.93C160.311 11.93 159.975 11.81 159.723 11.57C159.483 11.33 159.363 11.012 159.363 10.616C159.363 10.22 159.483 9.908 159.723 9.68C159.975 9.44 160.311 9.32 160.731 9.32ZM160.731 16.07C161.139 16.07 161.463 16.19 161.703 16.43C161.955 16.658 162.081 16.97 162.081 17.366C162.081 17.762 161.955 18.08 161.703 18.32C161.463 18.56 161.139 18.68 160.731 18.68C160.311 18.68 159.975 18.56 159.723 18.32C159.483 18.08 159.363 17.762 159.363 17.366C159.363 16.97 159.483 16.658 159.723 16.43C159.975 16.19 160.311 16.07 160.731 16.07ZM169.062 18.68C167.634 18.68 166.512 18.164 165.696 17.132C164.892 16.088 164.49 14.564 164.49 12.56C164.49 10.556 164.892 9.038 165.696 8.006C166.512 6.962 167.634 6.44 169.062 6.44C170.502 6.44 171.624 6.962 172.428 8.006C173.244 9.038 173.652 10.556 173.652 12.56C173.652 14.564 173.244 16.088 172.428 17.132C171.624 18.164 170.502 18.68 169.062 18.68ZM169.062 17.042C169.638 17.042 170.118 16.88 170.502 16.556C170.898 16.22 171.192 15.722 171.384 15.062C171.588 14.39 171.69 13.556 171.69 12.56C171.69 11.564 171.588 10.736 171.384 10.076C171.192 9.404 170.898 8.906 170.502 8.582C170.118 8.246 169.638 8.078 169.062 8.078C168.486 8.078 168 8.246 167.604 8.582C167.22 8.906 166.932 9.404 166.74 10.076C166.548 10.736 166.452 11.564 166.452 12.56C166.452 13.556 166.548 14.39 166.74 15.062C166.932 15.722 167.22 16.22 167.604 16.556C168 16.88 168.486 17.042 169.062 17.042ZM180.365 18.68C178.937 18.68 177.815 18.164 176.999 17.132C176.195 16.088 175.793 14.564 175.793 12.56C175.793 10.556 176.195 9.038 176.999 8.006C177.815 6.962 178.937 6.44 180.365 6.44C181.805 6.44 182.927 6.962 183.731 8.006C184.547 9.038 184.955 10.556 184.955 12.56C184.955 14.564 184.547 16.088 183.731 17.132C182.927 18.164 181.805 18.68 180.365 18.68ZM180.365 17.042C180.941 17.042 181.421 16.88 181.805 16.556C182.201 16.22 182.495 15.722 182.687 15.062C182.891 14.39 182.993 13.556 182.993 12.56C182.993 11.564 182.891 10.736 182.687 10.076C182.495 9.404 182.201 8.906 181.805 8.582C181.421 8.246 180.941 8.078 180.365 8.078C179.789 8.078 179.303 8.246 178.907 8.582C178.523 8.906 178.235 9.404 178.043 10.076C177.851 10.736 177.755 11.564 177.755 12.56C177.755 13.556 177.851 14.39 178.043 15.062C178.235 15.722 178.523 16.22 178.907 16.556C179.303 16.88 179.789 17.042 180.365 17.042ZM198.205 6.62C199.057 6.62 199.789 6.77 200.401 7.07C201.025 7.37 201.511 7.796 201.859 8.348C202.207 8.9 202.381 9.566 202.381 10.346C202.381 11.114 202.207 11.78 201.859 12.344C201.511 12.896 201.025 13.322 200.401 13.622C199.789 13.922 199.057 14.072 198.205 14.072H195.559V18.5H193.633V6.62H198.205ZM197.899 12.416C198.751 12.416 199.375 12.242 199.771 11.894C200.179 11.534 200.383 11.018 200.383 10.346C200.383 9.662 200.179 9.146 199.771 8.798C199.375 8.438 198.751 8.258 197.899 8.258H195.559V12.416H197.899ZM217.068 6.62V18.5H215.286V11.624L215.43 8.348H215.412L211.794 18.5H210.192L206.574 8.348H206.556L206.7 11.624V18.5H204.918V6.62H207.78L210.174 13.496L211.002 16.322H211.038L211.884 13.496L214.26 6.62H217.068ZM221.282 16.07C221.618 16.07 221.894 16.154 222.11 16.322C222.338 16.478 222.512 16.7 222.632 16.988C222.752 17.264 222.812 17.582 222.812 17.942C222.812 18.386 222.728 18.812 222.56 19.22C222.392 19.64 222.146 20.018 221.822 20.354C221.51 20.702 221.132 20.984 220.688 21.2L219.788 20.426C220.112 20.306 220.4 20.15 220.652 19.958C220.904 19.766 221.114 19.55 221.282 19.31C221.462 19.07 221.588 18.824 221.66 18.572L221.588 18.536C221.528 18.572 221.456 18.602 221.372 18.626C221.3 18.65 221.192 18.662 221.048 18.662C220.88 18.662 220.706 18.614 220.526 18.518C220.358 18.434 220.214 18.302 220.094 18.122C219.974 17.942 219.914 17.708 219.914 17.42C219.914 17.156 219.974 16.922 220.094 16.718C220.226 16.514 220.394 16.358 220.598 16.25C220.802 16.13 221.03 16.07 221.282 16.07ZM231.373 18.5V6.62H239.977V8.276H233.299V11.696H238.519V13.316H233.299V16.844H240.229V18.5H231.373ZM252.519 6.62L248.109 18.5H245.859L241.449 6.62H243.501L246.273 14.522L246.993 16.88L247.713 14.54L250.485 6.62H252.519ZM254.682 18.5V6.62H263.286V8.276H256.608V11.696H261.828V13.316H256.608V16.844H263.538V18.5H254.682ZM270.967 6.62C272.239 6.62 273.247 6.938 273.991 7.574C274.747 8.21 275.125 9.068 275.125 10.148C275.125 11.264 274.747 12.128 273.991 12.74C273.247 13.34 272.239 13.64 270.967 13.64L270.787 13.748H268.033V18.5H266.125V6.62H270.967ZM270.823 12.146C271.603 12.146 272.179 11.99 272.551 11.678C272.935 11.354 273.127 10.862 273.127 10.202C273.127 9.554 272.935 9.068 272.551 8.744C272.179 8.42 271.603 8.258 270.823 8.258H268.033V12.146H270.823ZM271.957 12.542L275.827 18.5H273.613L270.301 13.298L271.957 12.542ZM286.529 6.62L282.281 13.946V18.5H280.355V13.946L276.125 6.62H278.267L280.391 10.454L281.327 12.218L282.263 10.454L284.369 6.62H286.529ZM292.362 6.62C294.222 6.62 295.668 7.136 296.7 8.168C297.744 9.188 298.266 10.652 298.266 12.56C298.266 14.468 297.744 15.938 296.7 16.97C295.668 17.99 294.222 18.5 292.362 18.5H288.168V6.62H292.362ZM292.362 16.862C293.622 16.862 294.582 16.49 295.242 15.746C295.914 14.99 296.25 13.928 296.25 12.56C296.25 11.192 295.914 10.136 295.242 9.392C294.582 8.636 293.622 8.258 292.362 8.258H290.094V16.862H292.362ZM310.566 18.5H308.532L307.398 15.386H302.412L301.278 18.5H299.298L303.78 6.62H306.084L310.566 18.5ZM302.952 13.82H306.858L304.914 8.276L302.952 13.82ZM320.104 6.62L315.856 13.946V18.5H313.93V13.946L309.7 6.62H311.842L313.966 10.454L314.902 12.218L315.838 10.454L317.944 6.62H320.104Z" fill="#2E4049"/>
<path d="M11 1.5C5.47917 1.5 1 5.97917 1 11.5C1 17.0208 5.47917 21.5 11 21.5C16.5208 21.5 21 17.0208 21 11.5C21 5.97917 16.5208 1.5 11 1.5Z" stroke="#FF6D6D" stroke-width="2" stroke-miterlimit="10"/>
<path d="M11 6.5V12.5H16" stroke="#FF6D6D" stroke-width="2" stroke-linecap="round" stroke-linejoin="round"/>
</svg>
