<svg width="129" height="37" viewBox="0 0 129 37" fill="none" xmlns="http://www.w3.org/2000/svg">
<path d="M15.9404 1.73438C16.4873 1.91667 16.7607 2.31543 16.7607 2.93066L16.3506 15.8506L16.9658 28.3262C16.9658 32.4277 16.5329 34.4785 15.667 34.4785H15.4619C14.3454 34.4785 12.6934 31.2542 10.5059 24.8057C10.5059 24.4411 10.4033 24.2132 10.1982 24.1221C8.87663 28.3604 7.54362 31.71 6.19922 34.1709L5.58398 34.2393C4.8776 34.2393 4.44466 33.305 4.28516 31.4365C2.05208 18.8812 0.935547 9.66406 0.935547 3.78516C0.935547 2.98763 1.30013 2.58887 2.0293 2.58887C2.59896 2.58887 2.92936 3.06738 3.02051 4.02441C3.02051 9.83496 4.02311 18.2887 6.02832 29.3857H6.09668C6.82585 28.2464 7.86263 25.1247 9.20703 20.0205C9.20703 18.8812 9.60579 18.3115 10.4033 18.3115C11.0641 18.3115 11.4629 19.0749 11.5996 20.6016C12.2148 24.0195 13.2516 27.1755 14.71 30.0693L14.8467 30.1719L14.9492 30.0693V28.3262L14.2998 15.543L14.71 2.58887C14.71 2.08757 15.1201 1.80273 15.9404 1.73438ZM20.3496 0.914062C20.8509 0.914062 21.1471 1.31283 21.2383 2.11035V4.02441C21.2383 8.65007 21.2041 14.8024 21.1357 22.4814C21.9788 21.6383 22.765 21.2168 23.4941 21.2168C25.3398 21.2168 26.5361 23.222 27.083 27.2324C27.1514 30.2174 27.3223 32.8037 27.5957 34.9912C27.5957 35.3786 27.2311 35.7318 26.502 36.0508C25.7272 35.6634 25.3398 35.2419 25.3398 34.7861L25.4766 34.6836V34.5469C25.1348 27.6654 24.7702 24.2246 24.3828 24.2246C24.1094 23.6777 23.8587 23.3587 23.6309 23.2676H23.2891C22.1497 24.2702 21.5801 25.4893 21.5801 26.9248L21.6484 34.2734C21.375 34.9342 21.0218 35.2646 20.5889 35.2646C19.8369 35.2646 19.3584 34.2165 19.1533 32.1201C19.3128 30.7301 19.3926 29.5339 19.3926 28.5312V28.4287L19.3242 28.3262L19.3926 28.2236V27.3691L19.5977 11.749C19.3242 9.19694 19.1875 6.69043 19.1875 4.22949V2.17871C19.2331 1.33561 19.6204 0.914062 20.3496 0.914062ZM34.8418 22.5498L36.8926 22.8916V22.7891C37.3939 22.7891 37.7812 23.1878 38.0547 23.9854L37.9521 26.1387V27.6426C37.9521 29.8529 38.2712 31.5049 38.9092 32.5986C38.7269 33.1683 38.3737 33.4531 37.8496 33.4531C37.0977 33.4531 36.5508 32.5872 36.209 30.8555L36.1406 30.3086H35.833C35.0127 32.2454 33.8506 33.5329 32.3467 34.1709L31.834 34.3076C29.8743 33.7607 28.8945 32.3252 28.8945 30.001V29.7959C28.8945 26.902 30.2959 24.6006 33.0986 22.8916L34.8418 22.5498ZM30.9453 30.4453C31.1048 31.5846 31.4694 32.1543 32.0391 32.1543H32.1416C32.9391 32.1543 34.1924 29.7503 35.9014 24.9424V24.8398L34.9102 24.6348H34.8418C33.0189 24.6348 31.7201 26.207 30.9453 29.3516V30.4453ZM43.4551 4.19531C44.1842 4.19531 44.5033 6.39421 44.4121 10.792C44.3438 15.167 44.3096 18.266 44.3096 20.0889H44.3779L46.4287 19.7812C47.0895 19.8724 47.4199 20.2028 47.4199 20.7725C47.4199 21.5472 46.7021 21.9346 45.2666 21.9346L44.3779 22.2422L44.6855 33.6924C44.5944 34.4671 44.2412 34.8545 43.626 34.8545C42.8968 34.8545 42.5322 34.319 42.5322 33.248V30.5479L42.4639 22.9258L42.3271 22.584L40.8232 22.6865C40.1852 22.5498 39.8662 22.1966 39.8662 21.627C39.8662 20.9206 40.6523 20.5674 42.2246 20.5674V20.4307C42.2246 17.514 42.2702 12.4212 42.3613 5.15234C42.3613 4.58268 42.7259 4.26367 43.4551 4.19531ZM73.2598 1.73438C73.8066 1.91667 74.0801 2.31543 74.0801 2.93066L73.6699 15.8506L74.2852 28.3262C74.2852 32.4277 73.8522 34.4785 72.9863 34.4785H72.7812C71.6647 34.4785 70.0127 31.2542 67.8252 24.8057C67.8252 24.4411 67.7227 24.2132 67.5176 24.1221C66.196 28.3604 64.863 31.71 63.5186 34.1709L62.9033 34.2393C62.1969 34.2393 61.764 33.305 61.6045 31.4365C59.3714 18.8812 58.2549 9.66406 58.2549 3.78516C58.2549 2.98763 58.6195 2.58887 59.3486 2.58887C59.9183 2.58887 60.2487 3.06738 60.3398 4.02441C60.3398 9.83496 61.3424 18.2887 63.3477 29.3857H63.416C64.1452 28.2464 65.182 25.1247 66.5264 20.0205C66.5264 18.8812 66.9251 18.3115 67.7227 18.3115C68.3835 18.3115 68.7822 19.0749 68.9189 20.6016C69.5342 24.0195 70.571 27.1755 72.0293 30.0693L72.166 30.1719L72.2686 30.0693V28.3262L71.6191 15.543L72.0293 2.58887C72.0293 2.08757 72.4395 1.80273 73.2598 1.73438ZM79.5146 21.7979C80.7907 21.7979 81.6566 22.9486 82.1123 25.25C81.5199 27.8249 80.3008 29.1123 78.4551 29.1123H78.3184V29.2148C78.6829 31.2884 79.6514 32.3252 81.2236 32.3252C82.4313 32.3252 83.4111 31.2884 84.1631 29.2148L84.915 28.9072C85.4163 28.9072 85.7354 29.2946 85.8721 30.0693C85.8721 31.4821 84.7669 32.8151 82.5566 34.0684L80.916 34.376C78.9564 34.376 77.4867 32.9746 76.5068 30.1719C76.2334 29.0553 76.0967 28.1325 76.0967 27.4033V26.959C76.0967 24.6348 77.0651 22.9486 79.002 21.9004L79.5146 21.7979ZM78.25 26.1045V26.1729L79.002 26.959C79.3438 26.959 79.6628 26.4919 79.959 25.5576V25.0107C79.8451 24.3044 79.6969 23.9512 79.5146 23.9512H79.3096C78.9678 23.9512 78.6146 24.6689 78.25 26.1045ZM97.4248 3.95605C97.9033 3.95605 98.3363 4.63965 98.7236 6.00684H98.9287C99.7035 5.41439 100.786 5.0612 102.176 4.94727C106.209 4.94727 108.909 8.5931 110.276 15.8848L110.789 21.5928C110.789 28.1097 108.465 32.348 103.816 34.3076L102.039 34.5127H101.971C101.469 34.5127 100.717 34.3418 99.7148 34V34.3076L99.8174 34.957C99.8174 35.276 99.4984 35.5951 98.8604 35.9141C97.9945 35.9141 97.5615 34.9798 97.5615 33.1113C96.9691 25.1133 96.6729 20.2028 96.6729 18.3799L97.0146 8.33105C97.0146 7.30566 96.764 6.17773 96.2627 4.94727C96.2627 4.42318 96.6501 4.09277 97.4248 3.95605ZM98.7236 18.2432L99.2363 29.5566C99.806 31.5163 100.638 32.4961 101.731 32.4961H102.62C103.851 32.4961 105.206 31.5618 106.688 29.6934C107.986 27.6198 108.636 25.1702 108.636 22.3447V20.5332C108.636 15.9759 107.701 12.1364 105.833 9.01465C104.739 7.71582 103.737 7.06641 102.825 7.06641H101.526C100.068 7.06641 99.2363 7.96647 99.0312 9.7666L98.7236 18.2432ZM114.856 16.6367C115.449 16.6367 115.813 17.0241 115.95 17.7988C115.95 18.1634 115.7 18.5166 115.198 18.8584H114.856C114.218 18.8584 113.899 18.471 113.899 17.6963C114.082 16.9899 114.401 16.6367 114.856 16.6367ZM115.096 21.251C115.87 21.3649 116.087 22.5156 115.745 24.7031C115.472 26.5033 115.426 29.5225 115.608 33.7607C115.267 34.4215 114.822 34.7064 114.275 34.6152C113.637 34.5241 113.375 33.3962 113.489 31.2314C113.444 27.4489 113.637 24.2816 114.07 21.7295C114.116 21.3877 114.458 21.2282 115.096 21.251ZM124.598 4.91309C124.871 4.91309 125.167 5.11816 125.486 5.52832V8.0918C125.486 15.6569 126.102 23.8486 127.332 32.667L128.05 34.9229C127.89 35.4925 127.537 35.7773 126.99 35.7773C126.284 35.7773 125.783 34.9229 125.486 33.2139H125.247C124.404 33.9886 123.572 34.376 122.752 34.376C120.883 34.376 119.493 33.1683 118.582 30.7529C118.286 29.9554 118.138 29.0098 118.138 27.916C118.138 25.3184 119.004 23.5182 120.735 22.5156L121.487 22.4473H121.59C122.273 22.4473 123.094 22.7663 124.051 23.4043H124.188V23.3018C123.686 17.4229 123.436 12.6149 123.436 8.87793V6.58789C123.436 5.47135 123.823 4.91309 124.598 4.91309ZM120.188 27.8135V28.5996C120.188 30.2858 120.804 31.5049 122.034 32.2568L122.752 32.3252C123.846 32.3252 124.393 31.2542 124.393 29.1123V28.1553C124.393 26.2184 123.39 24.9993 121.385 24.498C120.587 24.9766 120.188 26.0817 120.188 27.8135Z" fill="#FF6D6D"/>
</svg>
