<svg width="109" height="37" viewBox="0 0 109 37" fill="none" xmlns="http://www.w3.org/2000/svg">
<path d="M15.9404 1.73438C16.4873 1.91667 16.7607 2.31543 16.7607 2.93066L16.3506 15.8506L16.9658 28.3262C16.9658 32.4277 16.5329 34.4785 15.667 34.4785H15.4619C14.3454 34.4785 12.6934 31.2542 10.5059 24.8057C10.5059 24.4411 10.4033 24.2132 10.1982 24.1221C8.87663 28.3604 7.54362 31.71 6.19922 34.1709L5.58398 34.2393C4.8776 34.2393 4.44466 33.305 4.28516 31.4365C2.05208 18.8812 0.935547 9.66406 0.935547 3.78516C0.935547 2.98763 1.30013 2.58887 2.0293 2.58887C2.59896 2.58887 2.92936 3.06738 3.02051 4.02441C3.02051 9.83496 4.02311 18.2887 6.02832 29.3857H6.09668C6.82585 28.2464 7.86263 25.1247 9.20703 20.0205C9.20703 18.8812 9.60579 18.3115 10.4033 18.3115C11.0641 18.3115 11.4629 19.0749 11.5996 20.6016C12.2148 24.0195 13.2516 27.1755 14.71 30.0693L14.8467 30.1719L14.9492 30.0693V28.3262L14.2998 15.543L14.71 2.58887C14.71 2.08757 15.1201 1.80273 15.9404 1.73438ZM20.3496 0.914062C20.8509 0.914062 21.1471 1.31283 21.2383 2.11035V4.02441C21.2383 8.65007 21.2041 14.8024 21.1357 22.4814C21.9788 21.6383 22.765 21.2168 23.4941 21.2168C25.3398 21.2168 26.5361 23.222 27.083 27.2324C27.1514 30.2174 27.3223 32.8037 27.5957 34.9912C27.5957 35.3786 27.2311 35.7318 26.502 36.0508C25.7272 35.6634 25.3398 35.2419 25.3398 34.7861L25.4766 34.6836V34.5469C25.1348 27.6654 24.7702 24.2246 24.3828 24.2246C24.1094 23.6777 23.8587 23.3587 23.6309 23.2676H23.2891C22.1497 24.2702 21.5801 25.4893 21.5801 26.9248L21.6484 34.2734C21.375 34.9342 21.0218 35.2646 20.5889 35.2646C19.8369 35.2646 19.3584 34.2165 19.1533 32.1201C19.3128 30.7301 19.3926 29.5339 19.3926 28.5312V28.4287L19.3242 28.3262L19.3926 28.2236V27.3691L19.5977 11.749C19.3242 9.19694 19.1875 6.69043 19.1875 4.22949V2.17871C19.2331 1.33561 19.6204 0.914062 20.3496 0.914062ZM34.8418 22.5498L36.8926 22.8916V22.7891C37.3939 22.7891 37.7812 23.1878 38.0547 23.9854L37.9521 26.1387V27.6426C37.9521 29.8529 38.2712 31.5049 38.9092 32.5986C38.7269 33.1683 38.3737 33.4531 37.8496 33.4531C37.0977 33.4531 36.5508 32.5872 36.209 30.8555L36.1406 30.3086H35.833C35.0127 32.2454 33.8506 33.5329 32.3467 34.1709L31.834 34.3076C29.8743 33.7607 28.8945 32.3252 28.8945 30.001V29.7959C28.8945 26.902 30.2959 24.6006 33.0986 22.8916L34.8418 22.5498ZM30.9453 30.4453C31.1048 31.5846 31.4694 32.1543 32.0391 32.1543H32.1416C32.9391 32.1543 34.1924 29.7503 35.9014 24.9424V24.8398L34.9102 24.6348H34.8418C33.0189 24.6348 31.7201 26.207 30.9453 29.3516V30.4453ZM43.4551 4.19531C44.1842 4.19531 44.5033 6.39421 44.4121 10.792C44.3438 15.167 44.3096 18.266 44.3096 20.0889H44.3779L46.4287 19.7812C47.0895 19.8724 47.4199 20.2028 47.4199 20.7725C47.4199 21.5472 46.7021 21.9346 45.2666 21.9346L44.3779 22.2422L44.6855 33.6924C44.5944 34.4671 44.2412 34.8545 43.626 34.8545C42.8968 34.8545 42.5322 34.319 42.5322 33.248V30.5479L42.4639 22.9258L42.3271 22.584L40.8232 22.6865C40.1852 22.5498 39.8662 22.1966 39.8662 21.627C39.8662 20.9206 40.6523 20.5674 42.2246 20.5674V20.4307C42.2246 17.514 42.2702 12.4212 42.3613 5.15234C42.3613 4.58268 42.7259 4.26367 43.4551 4.19531ZM58.6309 20.6357C59.4056 20.6357 59.8727 21.7637 60.0322 24.0195C60.8525 26.9134 61.3311 28.3604 61.4678 28.3604H61.5703C61.7754 25.5804 62.1286 24.1904 62.6299 24.1904H63.0742C63.7122 24.1904 64.7832 25.5804 66.2871 28.3604H66.3896V28.2578C66.5947 23.0853 67.21 20.499 68.2354 20.499H68.4404C69.1012 20.6357 69.4316 20.9206 69.4316 21.3535C68.7708 23.2448 68.4404 25.4323 68.4404 27.916L68.5771 33.0771C68.3949 33.738 68.0189 34.0684 67.4492 34.0684C66.7884 34.0684 65.5693 32.0176 63.792 27.916H63.5869C63.2223 32.5872 62.516 34.9229 61.4678 34.9229C60.7614 34.9229 60.3285 33.7721 60.1689 31.4707C58.9157 27.2552 58.084 23.9967 57.6738 21.6953C57.6738 21.2168 57.9928 20.8636 58.6309 20.6357ZM74.1484 21.7979C75.4245 21.7979 76.2904 22.9486 76.7461 25.25C76.1536 27.8249 74.9346 29.1123 73.0889 29.1123H72.9521V29.2148C73.3167 31.2884 74.2852 32.3252 75.8574 32.3252C77.0651 32.3252 78.0449 31.2884 78.7969 29.2148L79.5488 28.9072C80.0501 28.9072 80.3691 29.2946 80.5059 30.0693C80.5059 31.4821 79.4007 32.8151 77.1904 34.0684L75.5498 34.376C73.5902 34.376 72.1204 32.9746 71.1406 30.1719C70.8672 29.0553 70.7305 28.1325 70.7305 27.4033V26.959C70.7305 24.6348 71.6989 22.9486 73.6357 21.9004L74.1484 21.7979ZM72.8838 26.1045V26.1729L73.6357 26.959C73.9775 26.959 74.2965 26.4919 74.5928 25.5576V25.0107C74.4788 24.3044 74.3307 23.9512 74.1484 23.9512H73.9434C73.6016 23.9512 73.2484 24.6689 72.8838 26.1045ZM96.9805 4.91309C97.2539 4.91309 97.5501 5.11816 97.8691 5.52832V8.0918C97.8691 15.6569 98.4844 23.8486 99.7148 32.667L100.433 34.9229C100.273 35.4925 99.9199 35.7773 99.373 35.7773C98.6667 35.7773 98.1654 34.9229 97.8691 33.2139H97.6299C96.7868 33.9886 95.9551 34.376 95.1348 34.376C93.2663 34.376 91.8763 33.1683 90.9648 30.7529C90.6686 29.9554 90.5205 29.0098 90.5205 27.916C90.5205 25.3184 91.3864 23.5182 93.1182 22.5156L93.8701 22.4473H93.9727C94.6562 22.4473 95.4766 22.7663 96.4336 23.4043H96.5703V23.3018C96.069 17.4229 95.8184 12.6149 95.8184 8.87793V6.58789C95.8184 5.47135 96.2057 4.91309 96.9805 4.91309ZM92.5713 27.8135V28.5996C92.5713 30.2858 93.1865 31.5049 94.417 32.2568L95.1348 32.3252C96.2285 32.3252 96.7754 31.2542 96.7754 29.1123V28.1553C96.7754 26.2184 95.7728 24.9993 93.7676 24.498C92.9701 24.9766 92.5713 26.0817 92.5713 27.8135ZM105.73 22.208C107.69 22.9144 108.727 25.0791 108.841 28.7021V28.9072C108.75 31.9378 107.964 33.7949 106.482 34.4785L105.525 34.6152C103.087 34.0228 101.868 32.1885 101.868 29.1123V29.0098C101.868 25.6829 102.939 23.4613 105.081 22.3447L105.73 22.208ZM103.885 28.7021V29.4541C104.135 31.596 104.796 32.667 105.867 32.667C106.482 31.9834 106.79 30.6618 106.79 28.7021V28.4971C106.676 26.0589 106.289 24.7259 105.628 24.498C104.466 25.0221 103.885 26.4235 103.885 28.7021Z" fill="#FF6D6D"/>
</svg>
